<svg width="482" height="228" viewBox="0 0 482 228" fill="none" xmlns="http://www.w3.org/2000/svg">
<path d="M67.403 225H73.3675V223.984H68.9726V223.911L71.0962 221.639C72.7212 219.899 73.2013 219.086 73.2013 218.038C73.2013 216.58 72.0195 215.416 70.3576 215.416C68.7002 215.416 67.4399 216.543 67.4399 218.205H68.5294C68.5294 217.129 69.2265 216.413 70.3206 216.413C71.3455 216.413 72.1303 217.041 72.1303 218.038C72.1303 218.911 71.6179 219.557 70.5237 220.753L67.403 224.169V225ZM78.3579 225.129C80.4446 225.129 81.6448 223.361 81.6448 220.273C81.6448 217.207 80.4261 215.416 78.3579 215.416C76.2897 215.416 75.071 217.207 75.071 220.273C75.071 223.361 76.2713 225.129 78.3579 225.129ZM78.3579 224.114C76.9822 224.114 76.1789 222.733 76.1789 220.273C76.1789 217.817 76.9914 216.413 78.3579 216.413C79.7244 216.413 80.5369 217.817 80.5369 220.273C80.5369 222.733 79.7336 224.114 78.3579 224.114ZM86.723 215.545H85.5781L83.2144 217.115V218.278L85.5227 216.746H85.5781V225H86.723V215.545ZM92.5813 225.129C94.4925 225.152 95.7389 223.712 95.7389 221.953C95.7389 220.125 94.3863 218.814 92.7659 218.814C91.7919 218.814 90.9563 219.289 90.4392 220.07H90.3654C90.37 217.766 91.2656 216.432 92.729 216.432C93.7262 216.432 94.3263 217.06 94.5387 217.909H95.6651C95.4343 216.441 94.3171 215.416 92.729 215.416C90.6008 215.416 89.2943 217.3 89.2943 220.642C89.2943 224.137 91.0301 225.111 92.5813 225.129ZM92.5813 224.114C91.3948 224.114 90.5269 223.103 90.5316 221.972C90.5362 220.841 91.4456 219.83 92.6182 219.83C93.7769 219.83 94.631 220.781 94.631 221.953C94.631 223.153 93.74 224.114 92.5813 224.114Z" fill="#718EBF"/>
<path d="M142.246 225H148.21V223.984H143.815V223.911L145.939 221.639C147.564 219.899 148.044 219.086 148.044 218.038C148.044 216.58 146.862 215.416 145.2 215.416C143.543 215.416 142.283 216.543 142.283 218.205H143.372C143.372 217.129 144.069 216.413 145.163 216.413C146.188 216.413 146.973 217.041 146.973 218.038C146.973 218.911 146.461 219.557 145.367 220.753L142.246 224.169V225ZM153.201 225.129C155.287 225.129 156.488 223.361 156.488 220.273C156.488 217.207 155.269 215.416 153.201 215.416C151.133 215.416 149.914 217.207 149.914 220.273C149.914 223.361 151.114 225.129 153.201 225.129ZM153.201 224.114C151.825 224.114 151.022 222.733 151.022 220.273C151.022 217.817 151.834 216.413 153.201 216.413C154.567 216.413 155.38 217.817 155.38 220.273C155.38 222.733 154.576 224.114 153.201 224.114ZM161.566 215.545H160.421L158.057 217.115V218.278L160.365 216.746H160.421V225H161.566V215.545ZM164.58 225H165.781L169.991 216.616V215.545H163.934V216.561H168.809V216.635L164.58 225Z" fill="#718EBF"/>
<path d="M216.454 225H222.418V223.984H218.023V223.911L220.147 221.639C221.772 219.899 222.252 219.086 222.252 218.038C222.252 216.58 221.07 215.416 219.408 215.416C217.751 215.416 216.491 216.543 216.491 218.205H217.58C217.58 217.129 218.277 216.413 219.371 216.413C220.396 216.413 221.181 217.041 221.181 218.038C221.181 218.911 220.669 219.557 219.575 220.753L216.454 224.169V225ZM227.409 225.129C229.495 225.129 230.696 223.361 230.696 220.273C230.696 217.207 229.477 215.416 227.409 215.416C225.341 215.416 224.122 217.207 224.122 220.273C224.122 223.361 225.322 225.129 227.409 225.129ZM227.409 224.114C226.033 224.114 225.23 222.733 225.23 220.273C225.23 217.817 226.042 216.413 227.409 216.413C228.775 216.413 229.588 217.817 229.588 220.273C229.588 222.733 228.784 224.114 227.409 224.114ZM235.774 215.545H234.629L232.265 217.115V218.278L234.573 216.746H234.629V225H235.774V215.545ZM241.521 225.129C243.409 225.129 244.725 224.026 244.734 222.489C244.725 221.293 243.926 220.277 242.906 220.088V220.033C243.793 219.802 244.374 218.934 244.383 217.928C244.374 216.487 243.165 215.416 241.521 215.416C239.859 215.416 238.65 216.487 238.659 217.928C238.65 218.934 239.231 219.802 240.136 220.033V220.088C239.098 220.277 238.299 221.293 238.308 222.489C238.299 224.026 239.615 225.129 241.521 225.129ZM241.521 224.114C240.224 224.114 239.425 223.449 239.435 222.433C239.425 221.367 240.307 220.605 241.521 220.605C242.717 220.605 243.599 221.367 243.608 222.433C243.599 223.449 242.8 224.114 241.521 224.114ZM241.521 219.626C240.487 219.626 239.758 218.98 239.767 218.001C239.758 217.041 240.459 216.413 241.521 216.413C242.565 216.413 243.266 217.041 243.276 218.001C243.266 218.98 242.537 219.626 241.521 219.626Z" fill="#718EBF"/>
<path d="M291.403 225H297.367V223.984H292.973V223.911L295.096 221.639C296.721 219.899 297.201 219.086 297.201 218.038C297.201 216.58 296.019 215.416 294.358 215.416C292.7 215.416 291.44 216.543 291.44 218.205H292.529C292.529 217.129 293.227 216.413 294.321 216.413C295.345 216.413 296.13 217.041 296.13 218.038C296.13 218.911 295.618 219.557 294.524 220.753L291.403 224.169V225ZM302.358 225.129C304.445 225.129 305.645 223.361 305.645 220.273C305.645 217.207 304.426 215.416 302.358 215.416C300.29 215.416 299.071 217.207 299.071 220.273C299.071 223.361 300.271 225.129 302.358 225.129ZM302.358 224.114C300.982 224.114 300.179 222.733 300.179 220.273C300.179 217.817 300.991 216.413 302.358 216.413C303.724 216.413 304.537 217.817 304.537 220.273C304.537 222.733 303.734 224.114 302.358 224.114ZM310.723 215.545H309.578L307.214 217.115V218.278L309.523 216.746H309.578V225H310.723V215.545ZM316.452 215.416C314.532 215.393 313.294 216.838 313.294 218.574C313.294 220.402 314.642 221.713 316.267 221.713C317.246 221.713 318.077 221.233 318.594 220.457H318.668C318.668 222.784 317.763 224.114 316.304 224.114C315.307 224.114 314.698 223.486 314.495 222.618H313.368C313.59 224.114 314.716 225.129 316.304 225.129C318.428 225.129 319.739 223.246 319.739 219.885C319.739 216.413 318.003 215.435 316.452 215.416ZM316.452 216.432C317.634 216.432 318.502 217.447 318.502 218.555C318.502 219.682 317.578 220.697 316.415 220.697C315.252 220.697 314.402 219.756 314.402 218.574C314.402 217.392 315.289 216.432 316.452 216.432Z" fill="#718EBF"/>
<path d="M365.983 225H371.947V223.984H367.552V223.911L369.676 221.639C371.301 219.899 371.781 219.086 371.781 218.038C371.781 216.58 370.599 215.416 368.937 215.416C367.28 215.416 366.02 216.543 366.02 218.205H367.109C367.109 217.129 367.806 216.413 368.9 216.413C369.925 216.413 370.71 217.041 370.71 218.038C370.71 218.911 370.197 219.557 369.103 220.753L365.983 224.169V225ZM376.938 225.129C379.024 225.129 380.224 223.361 380.224 220.273C380.224 217.207 379.006 215.416 376.938 215.416C374.869 215.416 373.651 217.207 373.651 220.273C373.651 223.361 374.851 225.129 376.938 225.129ZM376.938 224.114C375.562 224.114 374.759 222.733 374.759 220.273C374.759 217.817 375.571 216.413 376.938 216.413C378.304 216.413 379.116 217.817 379.116 220.273C379.116 222.733 378.313 224.114 376.938 224.114ZM381.979 225H387.943V223.984H383.548V223.911L385.672 221.639C387.297 219.899 387.777 219.086 387.777 218.038C387.777 216.58 386.595 215.416 384.933 215.416C383.276 215.416 382.016 216.543 382.016 218.205H383.105C383.105 217.129 383.802 216.413 384.896 216.413C385.921 216.413 386.706 217.041 386.706 218.038C386.706 218.911 386.194 219.557 385.099 220.753L381.979 224.169V225ZM392.934 225.129C395.02 225.129 396.221 223.361 396.221 220.273C396.221 217.207 395.002 215.416 392.934 215.416C390.865 215.416 389.647 217.207 389.647 220.273C389.647 223.361 390.847 225.129 392.934 225.129ZM392.934 224.114C391.558 224.114 390.755 222.733 390.755 220.273C390.755 217.817 391.567 216.413 392.934 216.413C394.3 216.413 395.113 217.817 395.113 220.273C395.113 222.733 394.309 224.114 392.934 224.114Z" fill="#718EBF"/>
<path d="M443.024 225H448.988V223.984H444.593V223.911L446.717 221.639C448.342 219.899 448.822 219.086 448.822 218.038C448.822 216.58 447.64 215.416 445.978 215.416C444.321 215.416 443.061 216.543 443.061 218.205H444.15C444.15 217.129 444.847 216.413 445.941 216.413C446.966 216.413 447.751 217.041 447.751 218.038C447.751 218.911 447.238 219.557 446.144 220.753L443.024 224.169V225ZM453.979 225.129C456.065 225.129 457.265 223.361 457.265 220.273C457.265 217.207 456.047 215.416 453.979 215.416C451.91 215.416 450.692 217.207 450.692 220.273C450.692 223.361 451.892 225.129 453.979 225.129ZM453.979 224.114C452.603 224.114 451.8 222.733 451.8 220.273C451.8 217.817 452.612 216.413 453.979 216.413C455.345 216.413 456.157 217.817 456.157 220.273C456.157 222.733 455.354 224.114 453.979 224.114ZM459.02 225H464.984V223.984H460.589V223.911L462.713 221.639C464.338 219.899 464.818 219.086 464.818 218.038C464.818 216.58 463.636 215.416 461.974 215.416C460.317 215.416 459.057 216.543 459.057 218.205H460.146C460.146 217.129 460.843 216.413 461.937 216.413C462.962 216.413 463.747 217.041 463.747 218.038C463.747 218.911 463.235 219.557 462.14 220.753L459.02 224.169V225ZM470.215 215.545H469.07L466.706 217.115V218.278L469.014 216.746H469.07V225H470.215V215.545Z" fill="#718EBF"/>
<path d="M6.95064 158.182H7.70774V157.152C9.64666 157.018 10.7362 155.874 10.7362 154.433C10.7362 152.661 9.05575 152.088 8.07706 151.83L7.70774 151.728V148.446C8.68643 148.543 9.39737 149.069 9.49893 149.909H10.6069C10.5607 148.561 9.37891 147.536 7.70774 147.425V146.364H6.95064V147.439C5.36719 147.601 4.18075 148.607 4.18075 150.057C4.18075 151.331 5.10405 152.088 6.58132 152.513L6.95064 152.619V156.114C5.98118 156.012 5.18715 155.513 5.10405 154.562H3.92223C4.02841 156.017 5.13636 157.032 6.95064 157.152V158.182ZM7.70774 156.114V152.836L7.74467 152.845C8.74183 153.122 9.6282 153.473 9.6282 154.415C9.6282 155.343 8.82493 155.989 7.70774 156.114ZM6.95064 151.525C6.24893 151.326 5.28871 150.939 5.28871 150.001C5.28871 149.203 5.93501 148.593 6.95064 148.46V151.525ZM15.7762 147.545H14.6313L12.2677 149.115V150.278L14.5759 148.746H14.6313V157H15.7762V147.545ZM21.5791 157.129C23.6657 157.129 24.866 155.361 24.866 152.273C24.866 149.207 23.6473 147.416 21.5791 147.416C19.5109 147.416 18.2922 149.207 18.2922 152.273C18.2922 155.361 19.4925 157.129 21.5791 157.129ZM21.5791 156.114C20.2034 156.114 19.4001 154.733 19.4001 152.273C19.4001 149.817 20.2126 148.413 21.5791 148.413C22.9456 148.413 23.7581 149.817 23.7581 152.273C23.7581 154.733 22.9548 156.114 21.5791 156.114ZM27.9337 155.707H26.7519L26.6965 156.224C26.5626 157.475 26.2994 158.722 26.1794 159.308H27.0104C27.232 158.68 27.7029 157.259 27.8598 156.206L27.9337 155.707ZM32.6875 157.129C34.7741 157.129 35.9744 155.361 35.9744 152.273C35.9744 149.207 34.7557 147.416 32.6875 147.416C30.6193 147.416 29.4006 149.207 29.4006 152.273C29.4006 155.361 30.6009 157.129 32.6875 157.129ZM32.6875 156.114C31.3118 156.114 30.5085 154.733 30.5085 152.273C30.5085 149.817 31.321 148.413 32.6875 148.413C34.054 148.413 34.8665 149.817 34.8665 152.273C34.8665 154.733 34.0632 156.114 32.6875 156.114ZM40.8125 157.129C42.8991 157.129 44.0994 155.361 44.0994 152.273C44.0994 149.207 42.8807 147.416 40.8125 147.416C38.7443 147.416 37.5256 149.207 37.5256 152.273C37.5256 155.361 38.7259 157.129 40.8125 157.129ZM40.8125 156.114C39.4368 156.114 38.6335 154.733 38.6335 152.273C38.6335 149.817 39.446 148.413 40.8125 148.413C42.179 148.413 42.9915 149.817 42.9915 152.273C42.9915 154.733 42.1882 156.114 40.8125 156.114ZM48.9375 157.129C51.0241 157.129 52.2244 155.361 52.2244 152.273C52.2244 149.207 51.0057 147.416 48.9375 147.416C46.8693 147.416 45.6506 149.207 45.6506 152.273C45.6506 155.361 46.8509 157.129 48.9375 157.129ZM48.9375 156.114C47.5618 156.114 46.7585 154.733 46.7585 152.273C46.7585 149.817 47.571 148.413 48.9375 148.413C50.304 148.413 51.1165 149.817 51.1165 152.273C51.1165 154.733 50.3132 156.114 48.9375 156.114Z" fill="#718EBF"/>
<path d="M5.12251 110.182H5.87962V109.152C7.81854 109.018 8.90803 107.874 8.90803 106.433C8.90803 104.661 7.22763 104.088 6.24893 103.83L5.87962 103.728V100.446C6.85831 100.543 7.56925 101.069 7.67081 101.909H8.77876C8.7326 100.561 7.55078 99.5362 5.87962 99.4254V98.3636H5.12251V99.4393C3.53906 99.6009 2.35263 100.607 2.35263 102.057C2.35263 103.331 3.27592 104.088 4.7532 104.513L5.12251 104.619V108.114C4.15305 108.012 3.35902 107.513 3.27592 106.562H2.09411C2.20028 108.017 3.30824 109.032 5.12251 109.152V110.182ZM5.87962 108.114V104.836L5.91655 104.845C6.91371 105.122 7.80007 105.473 7.80007 106.415C7.80007 107.343 6.9968 107.989 5.87962 108.114ZM5.12251 103.525C4.42081 103.326 3.46058 102.939 3.46058 102.001C3.46058 101.203 4.10689 100.593 5.12251 100.46V103.525ZM10.6242 109H16.5887V107.984H12.1938V107.911L14.3174 105.639C15.9424 103.899 16.4225 103.086 16.4225 102.038C16.4225 100.58 15.2407 99.4162 13.5787 99.4162C11.9214 99.4162 10.6611 100.543 10.6611 102.205H11.7506C11.7506 101.129 12.4477 100.413 13.5418 100.413C14.5667 100.413 15.3515 101.041 15.3515 102.038C15.3515 102.911 14.839 103.557 13.7449 104.753L10.6242 108.169V109ZM21.5791 109.129C23.6657 109.129 24.866 107.361 24.866 104.273C24.866 101.207 23.6473 99.4162 21.5791 99.4162C19.5109 99.4162 18.2922 101.207 18.2922 104.273C18.2922 107.361 19.4925 109.129 21.5791 109.129ZM21.5791 108.114C20.2034 108.114 19.4001 106.733 19.4001 104.273C19.4001 101.817 20.2126 100.413 21.5791 100.413C22.9456 100.413 23.7581 101.817 23.7581 104.273C23.7581 106.733 22.9548 108.114 21.5791 108.114ZM27.9337 107.707H26.7519L26.6965 108.224C26.5626 109.475 26.2994 110.722 26.1794 111.308H27.0104C27.232 110.68 27.7029 109.259 27.8598 108.206L27.9337 107.707ZM32.6875 109.129C34.7741 109.129 35.9744 107.361 35.9744 104.273C35.9744 101.207 34.7557 99.4162 32.6875 99.4162C30.6193 99.4162 29.4006 101.207 29.4006 104.273C29.4006 107.361 30.6009 109.129 32.6875 109.129ZM32.6875 108.114C31.3118 108.114 30.5085 106.733 30.5085 104.273C30.5085 101.817 31.321 100.413 32.6875 100.413C34.054 100.413 34.8665 101.817 34.8665 104.273C34.8665 106.733 34.0632 108.114 32.6875 108.114ZM40.8125 109.129C42.8991 109.129 44.0994 107.361 44.0994 104.273C44.0994 101.207 42.8807 99.4162 40.8125 99.4162C38.7443 99.4162 37.5256 101.207 37.5256 104.273C37.5256 107.361 38.7259 109.129 40.8125 109.129ZM40.8125 108.114C39.4368 108.114 38.6335 106.733 38.6335 104.273C38.6335 101.817 39.446 100.413 40.8125 100.413C42.179 100.413 42.9915 101.817 42.9915 104.273C42.9915 106.733 42.1882 108.114 40.8125 108.114ZM48.9375 109.129C51.0241 109.129 52.2244 107.361 52.2244 104.273C52.2244 101.207 51.0057 99.4162 48.9375 99.4162C46.8693 99.4162 45.6506 101.207 45.6506 104.273C45.6506 107.361 46.8509 109.129 48.9375 109.129ZM48.9375 108.114C47.5618 108.114 46.7585 106.733 46.7585 104.273C46.7585 101.817 47.571 100.413 48.9375 100.413C50.304 100.413 51.1165 101.817 51.1165 104.273C51.1165 106.733 50.3132 108.114 48.9375 108.114Z" fill="#718EBF"/>
<path d="M4.71626 62.1818H5.47337V61.1523C7.41229 61.0185 8.50178 59.8736 8.50178 58.4332C8.50178 56.6605 6.82138 56.0881 5.84268 55.8295L5.47337 55.728V52.4457C6.45206 52.5426 7.163 53.0689 7.26456 53.9091H8.37251C8.32635 52.5611 7.14453 51.5362 5.47337 51.4254V50.3636H4.71626V51.4393C3.13281 51.6009 1.94638 52.6072 1.94638 54.0568C1.94638 55.331 2.86967 56.0881 4.34695 56.5128L4.71626 56.619V60.1136C3.7468 60.0121 2.95277 59.5135 2.86967 58.5625H1.68786C1.79403 60.0167 2.90199 61.0323 4.71626 61.1523V62.1818ZM5.47337 60.1136V56.8359L5.5103 56.8452C6.50746 57.1222 7.39382 57.473 7.39382 58.4148C7.39382 59.3427 6.59055 59.989 5.47337 60.1136ZM4.71626 55.5249C4.01456 55.3263 3.05433 54.9386 3.05433 54.0014C3.05433 53.2028 3.70064 52.5934 4.71626 52.4595V55.5249ZM13.4126 61.1293C15.2453 61.1293 16.6072 59.9798 16.6072 58.4332C16.6072 57.233 15.8962 56.3604 14.7052 56.1619V56.0881C15.6608 55.7972 16.2563 55.0124 16.2563 53.946C16.2563 52.6072 15.1991 51.4162 13.4495 51.4162C11.8153 51.4162 10.458 52.4226 10.4026 53.9091H11.5106C11.5521 52.9673 12.4477 52.4134 13.431 52.4134C14.4743 52.4134 15.1483 53.0458 15.1483 54.0014C15.1483 54.9986 14.3682 55.6449 13.2464 55.6449H12.4893V56.6605H13.2464C14.6821 56.6605 15.4807 57.3899 15.4807 58.4332C15.4807 59.435 14.6082 60.1136 13.3941 60.1136C12.3 60.1136 11.4321 59.5504 11.3628 58.6364H10.1995C10.2687 60.1229 11.5798 61.1293 13.4126 61.1293ZM21.5791 61.1293C23.6657 61.1293 24.866 59.3612 24.866 56.2727C24.866 53.2074 23.6473 51.4162 21.5791 51.4162C19.5109 51.4162 18.2922 53.2074 18.2922 56.2727C18.2922 59.3612 19.4925 61.1293 21.5791 61.1293ZM21.5791 60.1136C20.2034 60.1136 19.4001 58.7333 19.4001 56.2727C19.4001 53.8168 20.2126 52.4134 21.5791 52.4134C22.9456 52.4134 23.7581 53.8168 23.7581 56.2727C23.7581 58.7333 22.9548 60.1136 21.5791 60.1136ZM27.9337 59.7074H26.7519L26.6965 60.2244C26.5626 61.4755 26.2994 62.7219 26.1794 63.3082H27.0104C27.232 62.6804 27.7029 61.2585 27.8598 60.206L27.9337 59.7074ZM32.6875 61.1293C34.7741 61.1293 35.9744 59.3612 35.9744 56.2727C35.9744 53.2074 34.7557 51.4162 32.6875 51.4162C30.6193 51.4162 29.4006 53.2074 29.4006 56.2727C29.4006 59.3612 30.6009 61.1293 32.6875 61.1293ZM32.6875 60.1136C31.3118 60.1136 30.5085 58.7333 30.5085 56.2727C30.5085 53.8168 31.321 52.4134 32.6875 52.4134C34.054 52.4134 34.8665 53.8168 34.8665 56.2727C34.8665 58.7333 34.0632 60.1136 32.6875 60.1136ZM40.8125 61.1293C42.8991 61.1293 44.0994 59.3612 44.0994 56.2727C44.0994 53.2074 42.8807 51.4162 40.8125 51.4162C38.7443 51.4162 37.5256 53.2074 37.5256 56.2727C37.5256 59.3612 38.7259 61.1293 40.8125 61.1293ZM40.8125 60.1136C39.4368 60.1136 38.6335 58.7333 38.6335 56.2727C38.6335 53.8168 39.446 52.4134 40.8125 52.4134C42.179 52.4134 42.9915 53.8168 42.9915 56.2727C42.9915 58.7333 42.1882 60.1136 40.8125 60.1136ZM48.9375 61.1293C51.0241 61.1293 52.2244 59.3612 52.2244 56.2727C52.2244 53.2074 51.0057 51.4162 48.9375 51.4162C46.8693 51.4162 45.6506 53.2074 45.6506 56.2727C45.6506 59.3612 46.8509 61.1293 48.9375 61.1293ZM48.9375 60.1136C47.5618 60.1136 46.7585 58.7333 46.7585 56.2727C46.7585 53.8168 47.571 52.4134 48.9375 52.4134C50.304 52.4134 51.1165 53.8168 51.1165 56.2727C51.1165 58.7333 50.3132 60.1136 48.9375 60.1136Z" fill="#718EBF"/>
<path d="M4.65279 14.1818H5.40989V13.1523C7.34881 13.0185 8.4383 11.8736 8.4383 10.4332C8.4383 8.66051 6.7579 8.08807 5.77921 7.82955L5.40989 7.72798V4.44567C6.38858 4.54261 7.09952 5.06889 7.20108 5.90909H8.30904C8.26287 4.56108 7.08105 3.53622 5.40989 3.42543V2.36364H4.65279V3.43928C3.06934 3.60085 1.8829 4.60724 1.8829 6.05682C1.8829 7.33097 2.8062 8.08807 4.28347 8.51278L4.65279 8.61896V12.1136C3.68333 12.0121 2.88929 11.5135 2.8062 10.5625H1.62438C1.73056 12.0167 2.83851 13.0323 4.65279 13.1523V14.1818ZM5.40989 12.1136V8.83594L5.44682 8.84517C6.44398 9.12216 7.33034 9.47301 7.33034 10.4148C7.33034 11.3427 6.52708 11.989 5.40989 12.1136ZM4.65279 7.52486C3.95108 7.32635 2.99086 6.93857 2.99086 6.00142C2.99086 5.20277 3.63716 4.59339 4.65279 4.45952V7.52486ZM9.93288 11.0611H14.3832V13H15.4727V11.0611H16.7653V10.0455H15.4727V3.54545H14.0877L9.93288 10.1193V11.0611ZM14.3832 10.0455H11.1701V9.97159L14.3093 5.00426H14.3832V10.0455ZM21.5791 13.1293C23.6657 13.1293 24.866 11.3612 24.866 8.27273C24.866 5.20739 23.6473 3.41619 21.5791 3.41619C19.5109 3.41619 18.2922 5.20739 18.2922 8.27273C18.2922 11.3612 19.4925 13.1293 21.5791 13.1293ZM21.5791 12.1136C20.2034 12.1136 19.4001 10.7333 19.4001 8.27273C19.4001 5.81676 20.2126 4.41335 21.5791 4.41335C22.9456 4.41335 23.7581 5.81676 23.7581 8.27273C23.7581 10.7333 22.9548 12.1136 21.5791 12.1136ZM27.9337 11.7074H26.7519L26.6965 12.2244C26.5626 13.4755 26.2994 14.7219 26.1794 15.3082H27.0104C27.232 14.6804 27.7029 13.2585 27.8598 12.206L27.9337 11.7074ZM32.6875 13.1293C34.7741 13.1293 35.9744 11.3612 35.9744 8.27273C35.9744 5.20739 34.7557 3.41619 32.6875 3.41619C30.6193 3.41619 29.4006 5.20739 29.4006 8.27273C29.4006 11.3612 30.6009 13.1293 32.6875 13.1293ZM32.6875 12.1136C31.3118 12.1136 30.5085 10.7333 30.5085 8.27273C30.5085 5.81676 31.321 4.41335 32.6875 4.41335C34.054 4.41335 34.8665 5.81676 34.8665 8.27273C34.8665 10.7333 34.0632 12.1136 32.6875 12.1136ZM40.8125 13.1293C42.8991 13.1293 44.0994 11.3612 44.0994 8.27273C44.0994 5.20739 42.8807 3.41619 40.8125 3.41619C38.7443 3.41619 37.5256 5.20739 37.5256 8.27273C37.5256 11.3612 38.7259 13.1293 40.8125 13.1293ZM40.8125 12.1136C39.4368 12.1136 38.6335 10.7333 38.6335 8.27273C38.6335 5.81676 39.446 4.41335 40.8125 4.41335C42.179 4.41335 42.9915 5.81676 42.9915 8.27273C42.9915 10.7333 42.1882 12.1136 40.8125 12.1136ZM48.9375 13.1293C51.0241 13.1293 52.2244 11.3612 52.2244 8.27273C52.2244 5.20739 51.0057 3.41619 48.9375 3.41619C46.8693 3.41619 45.6506 5.20739 45.6506 8.27273C45.6506 11.3612 46.8509 13.1293 48.9375 13.1293ZM48.9375 12.1136C47.5618 12.1136 46.7585 10.7333 46.7585 8.27273C46.7585 5.81676 47.571 4.41335 48.9375 4.41335C50.304 4.41335 51.1165 5.81676 51.1165 8.27273C51.1165 10.7333 50.3132 12.1136 48.9375 12.1136Z" fill="#718EBF"/>
<path d="M40.352 206.182H41.1091V205.152C43.048 205.018 44.1375 203.874 44.1375 202.433C44.1375 200.661 42.4571 200.088 41.4784 199.83L41.1091 199.728V196.446C42.0878 196.543 42.7987 197.069 42.9003 197.909H44.0083C43.9621 196.561 42.7803 195.536 41.1091 195.425V194.364H40.352V195.439C38.7686 195.601 37.5821 196.607 37.5821 198.057C37.5821 199.331 38.5054 200.088 39.9827 200.513L40.352 200.619V204.114C39.3825 204.012 38.5885 203.513 38.5054 202.562H37.3236C37.4298 204.017 38.5377 205.032 40.352 205.152V206.182ZM41.1091 204.114V200.836L41.146 200.845C42.1432 201.122 43.0296 201.473 43.0296 202.415C43.0296 203.343 42.2263 203.989 41.1091 204.114ZM40.352 199.525C39.6503 199.326 38.6901 198.939 38.6901 198.001C38.6901 197.203 39.3364 196.593 40.352 196.46V199.525ZM48.9375 205.129C51.0241 205.129 52.2244 203.361 52.2244 200.273C52.2244 197.207 51.0057 195.416 48.9375 195.416C46.8693 195.416 45.6506 197.207 45.6506 200.273C45.6506 203.361 46.8509 205.129 48.9375 205.129ZM48.9375 204.114C47.5618 204.114 46.7585 202.733 46.7585 200.273C46.7585 197.817 47.571 196.413 48.9375 196.413C50.304 196.413 51.1165 197.817 51.1165 200.273C51.1165 202.733 50.3132 204.114 48.9375 204.114Z" fill="#718EBF"/>
<rect x="62.25" y="204.25" width="418.5" height="0.5" stroke="#DFE5EE" stroke-width="0.5" stroke-dasharray="4 4"/>
<rect x="62.25" y="158.25" width="418.5" height="0.5" stroke="#DFE5EE" stroke-width="0.5" stroke-dasharray="4 4"/>
<rect x="62.25" y="110.25" width="418.5" height="0.5" stroke="#DFE5EE" stroke-width="0.5" stroke-dasharray="4 4"/>
<rect x="62.25" y="62.25" width="418.5" height="0.5" stroke="#DFE5EE" stroke-width="0.5" stroke-dasharray="4 4"/>
<rect x="62.25" y="14.25" width="418.5" height="0.5" stroke="#DFE5EE" stroke-width="0.5" stroke-dasharray="4 4"/>
<path d="M64 151C70.5631 144.5 75.1068 139 89.2427 139C103.379 139 107.922 108.501 128.117 106.001C148.311 103.501 155.379 148.5 175.573 147.5C195.767 146.5 192.738 83.5012 213.437 77.0013C234.136 70.5015 242.214 49.5018 262.408 48.5019C282.602 47.5019 287.146 106.001 306.835 106.001C326.524 106.001 332.078 68.0015 349.748 68.0015C367.417 68.0015 377.01 89.5011 398.214 90.0011C419.417 90.0011 419.922 132 439.107 132C458.291 132 466.369 39.502 480 40.002" stroke="#16DBCC" stroke-width="3" stroke-linecap="round" stroke-linejoin="round"/>
</svg>
