<svg width="670" height="309" viewBox="0 0 670 309" fill="none" xmlns="http://www.w3.org/2000/svg">
<path d="M4.63636 16.4545H5.56818V15.1875C7.95455 15.0227 9.29545 13.6136 9.29545 11.8409C9.29545 9.65909 7.22727 8.95455 6.02273 8.63636L5.56818 8.51136V4.47159C6.77273 4.59091 7.64773 5.23864 7.77273 6.27273H9.13636C9.07955 4.61364 7.625 3.35227 5.56818 3.21591V1.90909H4.63636V3.23295C2.6875 3.43182 1.22727 4.67045 1.22727 6.45455C1.22727 8.02273 2.36364 8.95455 4.18182 9.47727L4.63636 9.60795V13.9091C3.44318 13.7841 2.46591 13.1705 2.36364 12H0.909091C1.03977 13.7898 2.40341 15.0398 4.63636 15.1875V16.4545ZM5.56818 13.9091V9.875L5.61364 9.88636C6.84091 10.2273 7.93182 10.6591 7.93182 11.8182C7.93182 12.9602 6.94318 13.7557 5.56818 13.9091ZM4.63636 8.26136C3.77273 8.01705 2.59091 7.53977 2.59091 6.38636C2.59091 5.40341 3.38636 4.65341 4.63636 4.48864V8.26136ZM11.7713 15H13.2486L18.4304 4.68182V3.36364H10.9759V4.61364H16.9759V4.70455L11.7713 15ZM20.571 13.4091H19.1165L19.0483 14.0455C18.8835 15.5852 18.5597 17.1193 18.4119 17.8409H19.4347C19.7074 17.0682 20.2869 15.3182 20.4801 14.0227L20.571 13.4091ZM26.4347 15.1591C28.6506 15.1591 30.2756 13.5227 30.2756 11.2955C30.2756 9.03977 28.7074 7.38636 26.571 7.38636C25.7869 7.38636 25.0256 7.66477 24.5483 8.04545H24.4801L24.8892 4.61364H29.7528V3.36364H23.7074L23.0028 9.09091L24.321 9.25C24.804 8.90341 25.6278 8.65341 26.3438 8.65909C27.8267 8.67045 28.9119 9.79545 28.9119 11.3182C28.9119 12.8125 27.8665 13.9091 26.4347 13.9091C25.2415 13.9091 24.2926 13.142 24.1847 12.0909H22.821C22.9062 13.8636 24.4347 15.1591 26.4347 15.1591ZM36.3963 15.1591C38.7486 15.1875 40.2827 13.4148 40.2827 11.25C40.2827 9 38.6179 7.38636 36.6236 7.38636C35.4247 7.38636 34.3963 7.97159 33.7599 8.93182H33.669C33.6747 6.09659 34.777 4.45455 36.5781 4.45455C37.8054 4.45455 38.544 5.22727 38.8054 6.27273H40.1918C39.9077 4.46591 38.5327 3.20455 36.5781 3.20455C33.9588 3.20455 32.3509 5.52273 32.3509 9.63636C32.3509 13.9375 34.4872 15.1364 36.3963 15.1591ZM36.3963 13.9091C34.9361 13.9091 33.8679 12.6648 33.8736 11.2727C33.8793 9.88068 34.9986 8.63636 36.4418 8.63636C37.8679 8.63636 38.919 9.80682 38.919 11.25C38.919 12.7273 37.8224 13.9091 36.3963 13.9091ZM46.3125 15.1591C48.8807 15.1591 50.358 12.983 50.358 9.18182C50.358 5.40909 48.858 3.20455 46.3125 3.20455C43.767 3.20455 42.267 5.40909 42.267 9.18182C42.267 12.983 43.7443 15.1591 46.3125 15.1591ZM46.3125 13.9091C44.6193 13.9091 43.6307 12.2102 43.6307 9.18182C43.6307 6.15909 44.6307 4.43182 46.3125 4.43182C47.9943 4.43182 48.9943 6.15909 48.9943 9.18182C48.9943 12.2102 48.0057 13.9091 46.3125 13.9091ZM139.199 16.4545H140.131V15.1875C142.517 15.0227 143.858 13.6136 143.858 11.8409C143.858 9.65909 141.79 8.95455 140.585 8.63636L140.131 8.51136V4.47159C141.335 4.59091 142.21 5.23864 142.335 6.27273H143.699C143.642 4.61364 142.188 3.35227 140.131 3.21591V1.90909H139.199V3.23295C137.25 3.43182 135.79 4.67045 135.79 6.45455C135.79 8.02273 136.926 8.95455 138.744 9.47727L139.199 9.60795V13.9091C138.006 13.7841 137.028 13.1705 136.926 12H135.472C135.602 13.7898 136.966 15.0398 139.199 15.1875V16.4545ZM140.131 13.9091V9.875L140.176 9.88636C141.403 10.2273 142.494 10.6591 142.494 11.8182C142.494 12.9602 141.506 13.7557 140.131 13.9091ZM139.199 8.26136C138.335 8.01705 137.153 7.53977 137.153 6.38636C137.153 5.40341 137.949 4.65341 139.199 4.48864V8.26136ZM149.607 15.1591C151.822 15.1591 153.447 13.5227 153.447 11.2955C153.447 9.03977 151.879 7.38636 149.743 7.38636C148.959 7.38636 148.197 7.66477 147.72 8.04545H147.652L148.061 4.61364H152.925V3.36364H146.879L146.175 9.09091L147.493 9.25C147.976 8.90341 148.8 8.65341 149.516 8.65909C150.999 8.67045 152.084 9.79545 152.084 11.3182C152.084 12.8125 151.038 13.9091 149.607 13.9091C148.413 13.9091 147.464 13.142 147.357 12.0909H145.993C146.078 13.8636 147.607 15.1591 149.607 15.1591ZM157.29 13.4091H155.835L155.767 14.0455C155.602 15.5852 155.278 17.1193 155.131 17.8409H156.153C156.426 17.0682 157.006 15.3182 157.199 14.0227L157.29 13.4091ZM159.479 12.6136H164.956V15H166.297V12.6136H167.888V11.3636H166.297V3.36364H164.592L159.479 11.4545V12.6136ZM164.956 11.3636H161.001V11.2727L164.865 5.15909H164.956V11.3636ZM170.017 15H177.358V13.75H171.949V13.6591L174.562 10.8636C176.562 8.72159 177.153 7.72159 177.153 6.43182C177.153 4.63636 175.699 3.20455 173.653 3.20455C171.614 3.20455 170.062 4.59091 170.062 6.63636H171.403C171.403 5.3125 172.261 4.43182 173.608 4.43182C174.869 4.43182 175.835 5.20455 175.835 6.43182C175.835 7.50568 175.205 8.30114 173.858 9.77273L170.017 13.9773V15ZM183.5 15.1591C186.068 15.1591 187.545 12.983 187.545 9.18182C187.545 5.40909 186.045 3.20455 183.5 3.20455C180.955 3.20455 179.455 5.40909 179.455 9.18182C179.455 12.983 180.932 15.1591 183.5 15.1591ZM183.5 13.9091C181.807 13.9091 180.818 12.2102 180.818 9.18182C180.818 6.15909 181.818 4.43182 183.5 4.43182C185.182 4.43182 186.182 6.15909 186.182 9.18182C186.182 12.2102 185.193 13.9091 183.5 13.9091Z" fill="#333B69"/>
<path d="M60.8125 15C64.358 15 66.358 12.7955 66.358 9.15909C66.358 5.54545 64.358 3.36364 60.9716 3.36364H57.2216V15H60.8125ZM58.6307 13.75V4.61364H60.8807C63.608 4.61364 64.9943 6.34091 64.9943 9.15909C64.9943 12 63.608 13.75 60.7216 13.75H58.6307ZM72.1989 15.1818C73.9716 15.1818 75.267 14.2955 75.6761 12.9773L74.3807 12.6136C74.0398 13.5227 73.25 13.9773 72.1989 13.9773C70.625 13.9773 69.5398 12.9602 69.4773 11.0909H75.8125V10.5227C75.8125 7.27273 73.8807 6.15909 72.0625 6.15909C69.6989 6.15909 68.1307 8.02273 68.1307 10.7045C68.1307 13.3864 69.6761 15.1818 72.1989 15.1818ZM69.4773 9.93182C69.5682 8.57386 70.5284 7.36364 72.0625 7.36364C73.517 7.36364 74.4489 8.45455 74.4489 9.93182H69.4773ZM78.0341 15H79.3295V13.6591H79.4886C79.7841 14.1364 80.3523 15.1818 82.0341 15.1818C84.2159 15.1818 85.7386 13.4318 85.7386 10.6591C85.7386 7.90909 84.2159 6.15909 82.0114 6.15909C80.3068 6.15909 79.7841 7.20455 79.4886 7.65909H79.375V3.36364H78.0341V15ZM79.3523 10.6364C79.3523 8.68182 80.2159 7.36364 81.8523 7.36364C83.5568 7.36364 84.3977 8.79545 84.3977 10.6364C84.3977 12.5 83.5341 13.9773 81.8523 13.9773C80.2386 13.9773 79.3523 12.6136 79.3523 10.6364ZM87.7898 15H89.1307V6.27273H87.7898V15ZM88.4716 4.81818C88.9943 4.81818 89.4261 4.40909 89.4261 3.90909C89.4261 3.40909 88.9943 3 88.4716 3C87.9489 3 87.517 3.40909 87.517 3.90909C87.517 4.40909 87.9489 4.81818 88.4716 4.81818ZM95.3821 6.27273H93.5185V4.18182H92.1776V6.27273H90.8594V7.40909H92.1776V12.8636C92.1776 14.3864 93.4048 15.1136 94.5412 15.1136C95.0412 15.1136 95.3594 15.0227 95.5412 14.9545L95.2685 13.75C95.1548 13.7727 94.973 13.8182 94.6776 13.8182C94.0866 13.8182 93.5185 13.6364 93.5185 12.5V7.40909H95.3821V6.27273ZM100.964 15.1818C102.737 15.1818 104.033 14.2955 104.442 12.9773L103.146 12.6136C102.805 13.5227 102.016 13.9773 100.964 13.9773C99.3906 13.9773 98.3054 12.9602 98.2429 11.0909H104.578V10.5227C104.578 7.27273 102.646 6.15909 100.828 6.15909C98.4645 6.15909 96.8963 8.02273 96.8963 10.7045C96.8963 13.3864 98.4418 15.1818 100.964 15.1818ZM98.2429 9.93182C98.3338 8.57386 99.294 7.36364 100.828 7.36364C102.283 7.36364 103.214 8.45455 103.214 9.93182H98.2429ZM109.913 15.1818C111.595 15.1818 112.163 14.1364 112.459 13.6591H112.618V15H113.913V3.36364H112.572V7.65909H112.459C112.163 7.20455 111.641 6.15909 109.936 6.15909C107.732 6.15909 106.209 7.90909 106.209 10.6591C106.209 13.4318 107.732 15.1818 109.913 15.1818ZM110.095 13.9773C108.413 13.9773 107.55 12.5 107.55 10.6364C107.55 8.79545 108.391 7.36364 110.095 7.36364C111.732 7.36364 112.595 8.68182 112.595 10.6364C112.595 12.6136 111.709 13.9773 110.095 13.9773ZM124.351 15.1591C125.419 15.1591 126.612 14.7841 127.368 14.0114L128.192 15H129.805L128.197 13.0398C128.635 12.4773 129.124 11.5341 129.124 9.90909H127.828C127.828 10.7045 127.646 11.4091 127.345 11.9943L124.817 8.90909L125.669 8.27273C126.624 7.56818 127.214 6.79545 127.214 5.68182C127.214 4.38636 126.146 3.25 124.396 3.25C122.692 3.25 121.578 4.31818 121.578 5.88636C121.578 6.92045 122.141 7.71591 122.942 8.68182C121.584 9.625 120.646 10.5 120.646 11.9091C120.646 13.7955 122.055 15.1591 124.351 15.1591ZM126.567 13.0398C125.925 13.642 125.112 13.9773 124.305 13.9773C122.919 13.9773 122.01 13 122.01 11.9091C122.01 11.5909 122.305 10.7727 123.351 10L123.783 9.68182L126.567 13.0398ZM123.993 7.90909C123.425 7.21591 122.942 6.55682 122.942 5.90909C122.942 5.18182 123.555 4.40909 124.442 4.40909C125.283 4.40909 125.851 5.09091 125.851 5.68182C125.851 6.47727 125.419 6.90909 124.76 7.34091L123.993 7.90909ZM203.773 7C203.341 4.61364 201.432 3.20455 199.091 3.20455C196.114 3.20455 193.955 5.5 193.955 9.18182C193.955 12.8636 196.114 15.1591 199.091 15.1591C201.432 15.1591 203.341 13.75 203.773 11.3636H202.364C202.023 12.9773 200.636 13.8409 199.091 13.8409C196.977 13.8409 195.318 12.2045 195.318 9.18182C195.318 6.15909 196.977 4.52273 199.091 4.52273C200.636 4.52273 202.023 5.38636 202.364 7H203.773ZM205.868 15H207.209V9.47727C207.209 8.29545 208.141 7.43182 209.413 7.43182C209.771 7.43182 210.141 7.5 210.232 7.52273V6.15909C210.078 6.14773 209.726 6.13636 209.527 6.13636C208.482 6.13636 207.572 6.72727 207.254 7.59091H207.163V6.27273H205.868V15ZM215.214 15.1818C216.987 15.1818 218.283 14.2955 218.692 12.9773L217.396 12.6136C217.055 13.5227 216.266 13.9773 215.214 13.9773C213.641 13.9773 212.555 12.9602 212.493 11.0909H218.828V10.5227C218.828 7.27273 216.896 6.15909 215.078 6.15909C212.714 6.15909 211.146 8.02273 211.146 10.7045C211.146 13.3864 212.692 15.1818 215.214 15.1818ZM212.493 9.93182C212.584 8.57386 213.544 7.36364 215.078 7.36364C216.533 7.36364 217.464 8.45455 217.464 9.93182H212.493ZM224.163 15.1818C225.845 15.1818 226.413 14.1364 226.709 13.6591H226.868V15H228.163V3.36364H226.822V7.65909H226.709C226.413 7.20455 225.891 6.15909 224.186 6.15909C221.982 6.15909 220.459 7.90909 220.459 10.6591C220.459 13.4318 221.982 15.1818 224.163 15.1818ZM224.345 13.9773C222.663 13.9773 221.8 12.5 221.8 10.6364C221.8 8.79545 222.641 7.36364 224.345 7.36364C225.982 7.36364 226.845 8.68182 226.845 10.6364C226.845 12.6136 225.959 13.9773 224.345 13.9773ZM230.805 15H232.146V6.27273H230.805V15ZM231.487 4.81818C232.01 4.81818 232.442 4.40909 232.442 3.90909C232.442 3.40909 232.01 3 231.487 3C230.964 3 230.533 3.40909 230.533 3.90909C230.533 4.40909 230.964 4.81818 231.487 4.81818ZM238.398 6.27273H236.534V4.18182H235.193V6.27273H233.875V7.40909H235.193V12.8636C235.193 14.3864 236.42 15.1136 237.557 15.1136C238.057 15.1136 238.375 15.0227 238.557 14.9545L238.284 13.75C238.17 13.7727 237.989 13.8182 237.693 13.8182C237.102 13.8182 236.534 13.6364 236.534 12.5V7.40909H238.398V6.27273ZM243.98 15.1818C245.753 15.1818 247.048 14.2955 247.457 12.9773L246.162 12.6136C245.821 13.5227 245.031 13.9773 243.98 13.9773C242.406 13.9773 241.321 12.9602 241.259 11.0909H247.594V10.5227C247.594 7.27273 245.662 6.15909 243.844 6.15909C241.48 6.15909 239.912 8.02273 239.912 10.7045C239.912 13.3864 241.457 15.1818 243.98 15.1818ZM241.259 9.93182C241.349 8.57386 242.31 7.36364 243.844 7.36364C245.298 7.36364 246.23 8.45455 246.23 9.93182H241.259ZM252.929 15.1818C254.611 15.1818 255.179 14.1364 255.474 13.6591H255.634V15H256.929V3.36364H255.588V7.65909H255.474C255.179 7.20455 254.656 6.15909 252.952 6.15909C250.747 6.15909 249.224 7.90909 249.224 10.6591C249.224 13.4318 250.747 15.1818 252.929 15.1818ZM253.111 13.9773C251.429 13.9773 250.565 12.5 250.565 10.6364C250.565 8.79545 251.406 7.36364 253.111 7.36364C254.747 7.36364 255.611 8.68182 255.611 10.6364C255.611 12.6136 254.724 13.9773 253.111 13.9773ZM264.071 15H265.412V6.27273H264.071V15ZM264.753 4.81818C265.276 4.81818 265.707 4.40909 265.707 3.90909C265.707 3.40909 265.276 3 264.753 3C264.23 3 263.798 3.40909 263.798 3.90909C263.798 4.40909 264.23 4.81818 264.753 4.81818ZM269.209 9.75C269.209 8.22727 270.152 7.36364 271.436 7.36364C272.68 7.36364 273.436 8.17614 273.436 9.54545V15H274.777V9.45455C274.777 7.22727 273.589 6.15909 271.822 6.15909C270.504 6.15909 269.686 6.75 269.277 7.63636H269.163V6.27273H267.868V15H269.209V9.75ZM285.523 6.27273H283.659V4.18182H282.318V6.27273H281V7.40909H282.318V12.8636C282.318 14.3864 283.545 15.1136 284.682 15.1136C285.182 15.1136 285.5 15.0227 285.682 14.9545L285.409 13.75C285.295 13.7727 285.114 13.8182 284.818 13.8182C284.227 13.8182 283.659 13.6364 283.659 12.5V7.40909H285.523V6.27273ZM289.068 9.75C289.068 8.22727 290.04 7.36364 291.364 7.36364C292.625 7.36364 293.386 8.15909 293.386 9.54545V15H294.727V9.45455C294.727 7.21023 293.534 6.15909 291.75 6.15909C290.375 6.15909 289.591 6.73295 289.182 7.63636H289.068V3.36364H287.727V15H289.068V9.75ZM297.18 15H298.521V6.27273H297.18V15ZM297.862 4.81818C298.385 4.81818 298.817 4.40909 298.817 3.90909C298.817 3.40909 298.385 3 297.862 3C297.339 3 296.908 3.40909 296.908 3.90909C296.908 4.40909 297.339 4.81818 297.862 4.81818ZM307.159 8.22727C306.739 6.98864 305.795 6.15909 304.068 6.15909C302.227 6.15909 300.864 7.20455 300.864 8.68182C300.864 9.88636 301.58 10.6932 303.182 11.0682L304.636 11.4091C305.517 11.6136 305.932 12.0341 305.932 12.6364C305.932 13.3864 305.136 14 303.886 14C302.79 14 302.102 13.5284 301.864 12.5909L300.591 12.9091C300.903 14.392 302.125 15.1818 303.909 15.1818C305.938 15.1818 307.318 14.0739 307.318 12.5682C307.318 11.3523 306.557 10.5852 305 10.2045L303.705 9.88636C302.67 9.63068 302.205 9.28409 302.205 8.61364C302.205 7.86364 303 7.31818 304.068 7.31818C305.239 7.31818 305.722 7.96591 305.955 8.56818L307.159 8.22727ZM316.132 15H317.587L320.155 5.72727H320.246L322.814 15H324.268L327.45 3.36364H326.018L323.587 12.8409H323.473L320.996 3.36364H319.405L316.928 12.8409H316.814L314.382 3.36364H312.95L316.132 15ZM331.871 15.1818C333.643 15.1818 334.939 14.2955 335.348 12.9773L334.053 12.6136C333.712 13.5227 332.922 13.9773 331.871 13.9773C330.297 13.9773 329.212 12.9602 329.149 11.0909H335.484V10.5227C335.484 7.27273 333.553 6.15909 331.734 6.15909C329.371 6.15909 327.803 8.02273 327.803 10.7045C327.803 13.3864 329.348 15.1818 331.871 15.1818ZM329.149 9.93182C329.24 8.57386 330.2 7.36364 331.734 7.36364C333.189 7.36364 334.121 8.45455 334.121 9.93182H329.149ZM341.183 15.1818C342.956 15.1818 344.251 14.2955 344.661 12.9773L343.365 12.6136C343.024 13.5227 342.234 13.9773 341.183 13.9773C339.609 13.9773 338.524 12.9602 338.462 11.0909H344.797V10.5227C344.797 7.27273 342.865 6.15909 341.047 6.15909C338.683 6.15909 337.115 8.02273 337.115 10.7045C337.115 13.3864 338.661 15.1818 341.183 15.1818ZM338.462 9.93182C338.553 8.57386 339.513 7.36364 341.047 7.36364C342.501 7.36364 343.433 8.45455 343.433 9.93182H338.462ZM346.837 15H348.178V11.733L349.115 10.8636L352.382 15H354.087L350.126 10L353.814 6.27273H352.155L348.337 10.1591H348.178V3.36364H346.837V15Z" fill="#718EBF"/>
<rect y="145" width="30" height="135" rx="10" fill="#1A16F3"/>
<rect x="40" y="46" width="30" height="234" rx="10" fill="#FCAA0B"/>
<rect x="100" y="174" width="30" height="106" rx="10" fill="#1A16F3"/>
<rect x="140" y="94" width="30" height="186" rx="10" fill="#FCAA0B"/>
<rect x="200" y="178" width="30" height="102" rx="10" fill="#1A16F3"/>
<rect x="240" y="141" width="30" height="139" rx="10" fill="#FCAA0B"/>
<rect x="300" y="68" width="30" height="212" rx="10" fill="#1A16F3"/>
<rect x="340" y="157" width="30" height="123" rx="10" fill="#FCAA0B"/>
<rect x="400" y="130" width="30" height="150" rx="10" fill="#1A16F3"/>
<rect x="440" y="66" width="30" height="214" rx="10" fill="#FCAA0B"/>
<rect x="500" y="122" width="30" height="158" rx="10" fill="#1A16F3"/>
<rect x="540" y="175" width="30" height="105" rx="10" fill="#FCAA0B"/>
<rect x="600" y="101" width="30" height="179" rx="10" fill="#1A16F3"/>
<rect x="640" y="64" width="30" height="216" rx="10" fill="#FCAA0B"/>
<path d="M30.85 298.364H32.0431C31.9885 296.827 30.5716 295.679 28.6028 295.679C26.6539 295.679 25.1227 296.812 25.1227 298.523C25.1227 299.895 26.117 300.71 27.7079 301.168L28.9608 301.526C30.0346 301.824 30.9892 302.202 30.9892 303.216C30.9892 304.33 29.9153 305.065 28.5034 305.065C27.2903 305.065 26.2164 304.528 26.117 303.375H24.8443C24.9636 305.045 26.3159 306.179 28.5034 306.179C30.85 306.179 32.1824 304.886 32.1824 303.236C32.1824 301.327 30.3727 300.71 29.3187 300.432L28.2846 300.153C27.5289 299.955 26.3159 299.557 26.3159 298.463C26.3159 297.489 27.2108 296.773 28.563 296.773C29.796 296.773 30.7306 297.359 30.85 298.364ZM36.2976 306.179C37.63 306.179 38.326 305.463 38.5646 304.966H38.6243V306H39.7976V300.969C39.7976 298.543 37.9482 298.264 36.9737 298.264C35.8203 298.264 34.5078 298.662 33.9112 300.054L35.0249 300.452C35.2834 299.895 35.8949 299.298 37.0135 299.298C38.0923 299.298 38.6243 299.87 38.6243 300.849V300.889C38.6243 301.456 38.0476 301.406 36.6555 301.585C35.2386 301.769 33.6925 302.082 33.6925 303.832C33.6925 305.324 34.8459 306.179 36.2976 306.179ZM36.4766 305.125C35.5419 305.125 34.8658 304.707 34.8658 303.892C34.8658 302.997 35.6811 302.719 36.5959 302.599C37.093 302.54 38.4254 302.401 38.6243 302.162V303.236C38.6243 304.19 37.8686 305.125 36.4766 305.125ZM45.2601 298.364H43.6294V296.534H42.4561V298.364H41.3027V299.358H42.4561V304.131C42.4561 305.463 43.53 306.099 44.5243 306.099C44.9618 306.099 45.2402 306.02 45.3993 305.96L45.1607 304.906C45.0613 304.926 44.9022 304.966 44.6436 304.966C44.1266 304.966 43.6294 304.807 43.6294 303.812V299.358H45.2601V298.364Z" fill="#718EBF"/>
<path d="M129.175 298.364H130.368C130.314 296.827 128.897 295.679 126.928 295.679C124.979 295.679 123.448 296.812 123.448 298.523C123.448 299.895 124.442 300.71 126.033 301.168L127.286 301.526C128.36 301.824 129.314 302.202 129.314 303.216C129.314 304.33 128.241 305.065 126.829 305.065C125.616 305.065 124.542 304.528 124.442 303.375H123.169C123.289 305.045 124.641 306.179 126.829 306.179C129.175 306.179 130.508 304.886 130.508 303.236C130.508 301.327 128.698 300.71 127.644 300.432L126.61 300.153C125.854 299.955 124.641 299.557 124.641 298.463C124.641 297.489 125.536 296.773 126.888 296.773C128.121 296.773 129.056 297.359 129.175 298.364ZM137.188 302.878C137.188 304.31 136.094 304.966 135.219 304.966C134.245 304.966 133.549 304.25 133.549 303.136V298.364H132.376V303.216C132.376 305.165 133.41 306.099 134.842 306.099C135.995 306.099 136.751 305.483 137.109 304.707H137.188V306H138.361V298.364H137.188V302.878ZM141.684 301.406C141.684 300.074 142.509 299.318 143.633 299.318C144.721 299.318 145.383 300.029 145.383 301.227V306H146.556V301.148C146.556 299.199 145.517 298.264 143.971 298.264C142.817 298.264 142.101 298.781 141.743 299.557H141.644V298.364H140.51V306H141.684V301.406Z" fill="#718EBF"/>
<path d="M222.234 295.818V306H223.387V298.264H223.487L226.669 306H227.782L230.964 298.264H231.063V306H232.217V295.818H230.745L227.285 304.27H227.166L223.706 295.818H222.234ZM237.632 306.159C239.7 306.159 241.092 304.588 241.092 302.222C241.092 299.835 239.7 298.264 237.632 298.264C235.564 298.264 234.172 299.835 234.172 302.222C234.172 304.588 235.564 306.159 237.632 306.159ZM237.632 305.105C236.061 305.105 235.345 303.753 235.345 302.222C235.345 300.69 236.061 299.318 237.632 299.318C239.203 299.318 239.919 300.69 239.919 302.222C239.919 303.753 239.203 305.105 237.632 305.105ZM244.057 301.406C244.057 300.074 244.882 299.318 246.006 299.318C247.094 299.318 247.756 300.029 247.756 301.227V306H248.929V301.148C248.929 299.199 247.89 298.264 246.344 298.264C245.19 298.264 244.474 298.781 244.116 299.557H244.017V298.364H242.883V306H244.057V301.406Z" fill="#718EBF"/>
<path d="M324.063 296.912H327.265V306H328.498V296.912H331.699V295.818H324.063V296.912ZM337.216 302.878C337.216 304.31 336.123 304.966 335.248 304.966C334.273 304.966 333.577 304.25 333.577 303.136V298.364H332.404V303.216C332.404 305.165 333.438 306.099 334.87 306.099C336.023 306.099 336.779 305.483 337.137 304.707H337.216V306H338.39V298.364H337.216V302.878ZM343.74 306.159C345.292 306.159 346.425 305.384 346.783 304.23L345.65 303.912C345.351 304.707 344.66 305.105 343.74 305.105C342.363 305.105 341.414 304.215 341.359 302.58H346.902V302.082C346.902 299.239 345.212 298.264 343.621 298.264C341.553 298.264 340.181 299.895 340.181 302.241C340.181 304.588 341.533 306.159 343.74 306.159ZM341.359 301.565C341.439 300.377 342.279 299.318 343.621 299.318C344.894 299.318 345.709 300.273 345.709 301.565H341.359Z" fill="#718EBF"/>
<path d="M522.982 296.912H526.184V306H527.416V296.912H530.618V295.818H522.982V296.912ZM533.535 301.406C533.535 300.074 534.385 299.318 535.544 299.318C536.647 299.318 537.314 300.014 537.314 301.227V306H538.487V301.148C538.487 299.184 537.443 298.264 535.882 298.264C534.679 298.264 533.993 298.766 533.635 299.557H533.535V295.818H532.362V306H533.535V301.406ZM545.446 302.878C545.446 304.31 544.352 304.966 543.477 304.966C542.503 304.966 541.807 304.25 541.807 303.136V298.364H540.633V303.216C540.633 305.165 541.668 306.099 543.099 306.099C544.253 306.099 545.008 305.483 545.366 304.707H545.446V306H546.619V298.364H545.446V302.878Z" fill="#718EBF"/>
<path d="M628.4 306H629.633V301.446H634.048V300.352H629.633V296.912H634.505V295.818H628.4V306ZM636.376 306H637.549V301.168C637.549 300.134 638.364 299.378 639.478 299.378C639.791 299.378 640.114 299.438 640.194 299.457V298.264C640.06 298.254 639.751 298.244 639.577 298.244C638.663 298.244 637.867 298.761 637.589 299.517H637.509V298.364H636.376V306ZM641.585 306H642.758V298.364H641.585V306ZM642.181 297.091C642.639 297.091 643.016 296.733 643.016 296.295C643.016 295.858 642.639 295.5 642.181 295.5C641.724 295.5 641.346 295.858 641.346 296.295C641.346 296.733 641.724 297.091 642.181 297.091Z" fill="#718EBF"/>
<path d="M423.371 306H424.644L426.891 297.886H426.971L429.218 306H430.491L433.275 295.818H432.022L429.894 304.111H429.795L427.627 295.818H426.235L424.067 304.111H423.968L421.84 295.818H420.587L423.371 306ZM437.143 306.159C438.694 306.159 439.827 305.384 440.185 304.23L439.052 303.912C438.754 304.707 438.062 305.105 437.143 305.105C435.766 305.105 434.816 304.215 434.761 302.58H440.305V302.082C440.305 299.239 438.614 298.264 437.023 298.264C434.955 298.264 433.583 299.895 433.583 302.241C433.583 304.588 434.935 306.159 437.143 306.159ZM434.761 301.565C434.841 300.377 435.681 299.318 437.023 299.318C438.296 299.318 439.112 300.273 439.112 301.565H434.761ZM444.973 306.159C446.445 306.159 446.942 305.244 447.2 304.827H447.339V306H448.473V295.818H447.3V299.577H447.2C446.942 299.179 446.484 298.264 444.993 298.264C443.064 298.264 441.732 299.795 441.732 302.202C441.732 304.628 443.064 306.159 444.973 306.159ZM445.132 305.105C443.661 305.105 442.905 303.812 442.905 302.182C442.905 300.571 443.641 299.318 445.132 299.318C446.564 299.318 447.32 300.472 447.32 302.182C447.32 303.912 446.544 305.105 445.132 305.105Z" fill="#718EBF"/>
<g filter="url(#filter0_i_101_219)">
<rect x="507" y="2" width="15" height="15" rx="5" fill="#4C78FF"/>
</g>
<path d="M537 15C540.545 15 542.545 12.7955 542.545 9.15909C542.545 5.54545 540.545 3.36364 537.159 3.36364H533.409V15H537ZM534.818 13.75V4.61364H537.068C539.795 4.61364 541.182 6.34091 541.182 9.15909C541.182 12 539.795 13.75 536.909 13.75H534.818ZM548.386 15.1818C550.159 15.1818 551.455 14.2955 551.864 12.9773L550.568 12.6136C550.227 13.5227 549.438 13.9773 548.386 13.9773C546.812 13.9773 545.727 12.9602 545.665 11.0909H552V10.5227C552 7.27273 550.068 6.15909 548.25 6.15909C545.886 6.15909 544.318 8.02273 544.318 10.7045C544.318 13.3864 545.864 15.1818 548.386 15.1818ZM545.665 9.93182C545.756 8.57386 546.716 7.36364 548.25 7.36364C549.705 7.36364 550.636 8.45455 550.636 9.93182H545.665ZM554.222 15H555.517V13.6591H555.676C555.972 14.1364 556.54 15.1818 558.222 15.1818C560.403 15.1818 561.926 13.4318 561.926 10.6591C561.926 7.90909 560.403 6.15909 558.199 6.15909C556.494 6.15909 555.972 7.20455 555.676 7.65909H555.562V3.36364H554.222V15ZM555.54 10.6364C555.54 8.68182 556.403 7.36364 558.04 7.36364C559.744 7.36364 560.585 8.79545 560.585 10.6364C560.585 12.5 559.722 13.9773 558.04 13.9773C556.426 13.9773 555.54 12.6136 555.54 10.6364ZM563.977 15H565.318V6.27273H563.977V15ZM564.659 4.81818C565.182 4.81818 565.614 4.40909 565.614 3.90909C565.614 3.40909 565.182 3 564.659 3C564.136 3 563.705 3.40909 563.705 3.90909C563.705 4.40909 564.136 4.81818 564.659 4.81818ZM571.57 6.27273H569.706V4.18182H568.365V6.27273H567.047V7.40909H568.365V12.8636C568.365 14.3864 569.592 15.1136 570.729 15.1136C571.229 15.1136 571.547 15.0227 571.729 14.9545L571.456 13.75C571.342 13.7727 571.161 13.8182 570.865 13.8182C570.274 13.8182 569.706 13.6364 569.706 12.5V7.40909H571.57V6.27273Z" fill="#718EBF"/>
<g filter="url(#filter1_i_101_219)">
<rect x="598" y="2" width="15" height="15" rx="5" fill="#FF82AC"/>
</g>
<path d="M633.773 7C633.341 4.61364 631.432 3.20455 629.091 3.20455C626.114 3.20455 623.955 5.5 623.955 9.18182C623.955 12.8636 626.114 15.1591 629.091 15.1591C631.432 15.1591 633.341 13.75 633.773 11.3636H632.364C632.023 12.9773 630.636 13.8409 629.091 13.8409C626.977 13.8409 625.318 12.2045 625.318 9.18182C625.318 6.15909 626.977 4.52273 629.091 4.52273C630.636 4.52273 632.023 5.38636 632.364 7H633.773ZM635.868 15H637.209V9.47727C637.209 8.29545 638.141 7.43182 639.413 7.43182C639.771 7.43182 640.141 7.5 640.232 7.52273V6.15909C640.078 6.14773 639.726 6.13636 639.527 6.13636C638.482 6.13636 637.572 6.72727 637.254 7.59091H637.163V6.27273H635.868V15ZM645.214 15.1818C646.987 15.1818 648.283 14.2955 648.692 12.9773L647.396 12.6136C647.055 13.5227 646.266 13.9773 645.214 13.9773C643.641 13.9773 642.555 12.9602 642.493 11.0909H648.828V10.5227C648.828 7.27273 646.896 6.15909 645.078 6.15909C642.714 6.15909 641.146 8.02273 641.146 10.7045C641.146 13.3864 642.692 15.1818 645.214 15.1818ZM642.493 9.93182C642.584 8.57386 643.544 7.36364 645.078 7.36364C646.533 7.36364 647.464 8.45455 647.464 9.93182H642.493ZM654.163 15.1818C655.845 15.1818 656.413 14.1364 656.709 13.6591H656.868V15H658.163V3.36364H656.822V7.65909H656.709C656.413 7.20455 655.891 6.15909 654.186 6.15909C651.982 6.15909 650.459 7.90909 650.459 10.6591C650.459 13.4318 651.982 15.1818 654.163 15.1818ZM654.345 13.9773C652.663 13.9773 651.8 12.5 651.8 10.6364C651.8 8.79545 652.641 7.36364 654.345 7.36364C655.982 7.36364 656.845 8.68182 656.845 10.6364C656.845 12.6136 655.959 13.9773 654.345 13.9773ZM660.805 15H662.146V6.27273H660.805V15ZM661.487 4.81818C662.01 4.81818 662.442 4.40909 662.442 3.90909C662.442 3.40909 662.01 3 661.487 3C660.964 3 660.533 3.40909 660.533 3.90909C660.533 4.40909 660.964 4.81818 661.487 4.81818ZM668.398 6.27273H666.534V4.18182H665.193V6.27273H663.875V7.40909H665.193V12.8636C665.193 14.3864 666.42 15.1136 667.557 15.1136C668.057 15.1136 668.375 15.0227 668.557 14.9545L668.284 13.75C668.17 13.7727 667.989 13.8182 667.693 13.8182C667.102 13.8182 666.534 13.6364 666.534 12.5V7.40909H668.398V6.27273Z" fill="#718EBF"/>
<defs>
<filter id="filter0_i_101_219" x="507" y="2" width="15" height="15" filterUnits="userSpaceOnUse" color-interpolation-filters="sRGB">
<feFlood flood-opacity="0" result="BackgroundImageFix"/>
<feBlend mode="normal" in="SourceGraphic" in2="BackgroundImageFix" result="shape"/>
<feColorMatrix in="SourceAlpha" type="matrix" values="0 0 0 0 0 0 0 0 0 0 0 0 0 0 0 0 0 0 127 0" result="hardAlpha"/>
<feOffset/>
<feGaussianBlur stdDeviation="7.5"/>
<feComposite in2="hardAlpha" operator="arithmetic" k2="-1" k3="1"/>
<feColorMatrix type="matrix" values="0 0 0 0 0.0672743 0 0 0 0 0.203342 0 0 0 0 0.520833 0 0 0 0.5 0"/>
<feBlend mode="normal" in2="shape" result="effect1_innerShadow_101_219"/>
</filter>
<filter id="filter1_i_101_219" x="598" y="2" width="15" height="15" filterUnits="userSpaceOnUse" color-interpolation-filters="sRGB">
<feFlood flood-opacity="0" result="BackgroundImageFix"/>
<feBlend mode="normal" in="SourceGraphic" in2="BackgroundImageFix" result="shape"/>
<feColorMatrix in="SourceAlpha" type="matrix" values="0 0 0 0 0 0 0 0 0 0 0 0 0 0 0 0 0 0 127 0" result="hardAlpha"/>
<feOffset/>
<feGaussianBlur stdDeviation="7.5"/>
<feComposite in2="hardAlpha" operator="arithmetic" k2="-1" k3="1"/>
<feColorMatrix type="matrix" values="0 0 0 0 0.675 0 0 0 0 0.050625 0 0 0 0 0.42301 0 0 0 0.5 0"/>
<feBlend mode="normal" in2="shape" result="effect1_innerShadow_101_219"/>
</filter>
</defs>
</svg>
