<svg width="482" height="228" viewBox="0 0 482 228" fill="none" xmlns="http://www.w3.org/2000/svg">
<path d="M67.5643 225H73.5288V223.984H69.1339V223.911L71.2575 221.639C72.8825 219.899 73.3626 219.086 73.3626 218.038C73.3626 216.58 72.1808 215.416 70.5189 215.416C68.8616 215.416 67.6013 216.543 67.6013 218.205H68.6908C68.6908 217.129 69.3879 216.413 70.482 216.413C71.5068 216.413 72.2916 217.041 72.2916 218.038C72.2916 218.911 71.7792 219.557 70.6851 220.753L67.5643 224.169V225ZM78.5192 225.129C80.6059 225.129 81.8062 223.361 81.8062 220.273C81.8062 217.207 80.5874 215.416 78.5192 215.416C76.4511 215.416 75.2323 217.207 75.2323 220.273C75.2323 223.361 76.4326 225.129 78.5192 225.129ZM78.5192 224.114C77.1435 224.114 76.3403 222.733 76.3403 220.273C76.3403 217.817 77.1528 216.413 78.5192 216.413C79.8857 216.413 80.6982 217.817 80.6982 220.273C80.6982 222.733 79.895 224.114 78.5192 224.114ZM86.8843 215.545H85.7394L83.3758 217.115V218.278L85.684 216.746H85.7394V225H86.8843V215.545ZM92.7426 225.129C94.6538 225.152 95.9003 223.712 95.9003 221.953C95.9003 220.125 94.5477 218.814 92.9273 218.814C91.9532 218.814 91.1176 219.289 90.6006 220.07H90.5267C90.5313 217.766 91.4269 216.432 92.8903 216.432C93.8875 216.432 94.4876 217.06 94.7 217.909H95.8264C95.5956 216.441 94.4784 215.416 92.8903 215.416C90.7621 215.416 89.4557 217.3 89.4557 220.642C89.4557 224.137 91.1915 225.111 92.7426 225.129ZM92.7426 224.114C91.5562 224.114 90.6883 223.103 90.6929 221.972C90.6975 220.841 91.607 219.83 92.7795 219.83C93.9383 219.83 94.7923 220.781 94.7923 221.953C94.7923 223.153 93.9013 224.114 92.7426 224.114Z" fill="#718EBF"/>
<path d="M141.641 225H147.605V223.984H143.21V223.911L145.334 221.639C146.959 219.899 147.439 219.086 147.439 218.038C147.439 216.58 146.257 215.416 144.595 215.416C142.938 215.416 141.678 216.543 141.678 218.205H142.767C142.767 217.129 143.464 216.413 144.558 216.413C145.583 216.413 146.368 217.041 146.368 218.038C146.368 218.911 145.856 219.557 144.762 220.753L141.641 224.169V225ZM152.596 225.129C154.682 225.129 155.883 223.361 155.883 220.273C155.883 217.207 154.664 215.416 152.596 215.416C150.527 215.416 149.309 217.207 149.309 220.273C149.309 223.361 150.509 225.129 152.596 225.129ZM152.596 224.114C151.22 224.114 150.417 222.733 150.417 220.273C150.417 217.817 151.229 216.413 152.596 216.413C153.962 216.413 154.775 217.817 154.775 220.273C154.775 222.733 153.971 224.114 152.596 224.114ZM160.961 215.545H159.816L157.452 217.115V218.278L159.76 216.746H159.816V225H160.961V215.545ZM163.975 225H165.176L169.386 216.616V215.545H163.329V216.561H168.204V216.635L163.975 225Z" fill="#718EBF"/>
<path d="M215.082 225H221.047V223.984H216.652V223.911L218.776 221.639C220.401 219.899 220.881 219.086 220.881 218.038C220.881 216.58 219.699 215.416 218.037 215.416C216.38 215.416 215.119 216.543 215.119 218.205H216.209C216.209 217.129 216.906 216.413 218 216.413C219.025 216.413 219.81 217.041 219.81 218.038C219.81 218.911 219.297 219.557 218.203 220.753L215.082 224.169V225ZM226.037 225.129C228.124 225.129 229.324 223.361 229.324 220.273C229.324 217.207 228.105 215.416 226.037 215.416C223.969 215.416 222.75 217.207 222.75 220.273C222.75 223.361 223.951 225.129 226.037 225.129ZM226.037 224.114C224.662 224.114 223.858 222.733 223.858 220.273C223.858 217.817 224.671 216.413 226.037 216.413C227.404 216.413 228.216 217.817 228.216 220.273C228.216 222.733 227.413 224.114 226.037 224.114ZM234.402 215.545H233.257L230.894 217.115V218.278L233.202 216.746H233.257V225H234.402V215.545ZM240.15 225.129C242.038 225.129 243.354 224.026 243.363 222.489C243.354 221.293 242.555 220.277 241.535 220.088V220.033C242.421 219.802 243.003 218.934 243.012 217.928C243.003 216.487 241.793 215.416 240.15 215.416C238.488 215.416 237.278 216.487 237.288 217.928C237.278 218.934 237.86 219.802 238.765 220.033V220.088C237.726 220.277 236.928 221.293 236.937 222.489C236.928 224.026 238.243 225.129 240.15 225.129ZM240.15 224.114C238.853 224.114 238.054 223.449 238.063 222.433C238.054 221.367 238.936 220.605 240.15 220.605C241.346 220.605 242.227 221.367 242.237 222.433C242.227 223.449 241.429 224.114 240.15 224.114ZM240.15 219.626C239.116 219.626 238.386 218.98 238.396 218.001C238.386 217.041 239.088 216.413 240.15 216.413C241.193 216.413 241.895 217.041 241.904 218.001C241.895 218.98 241.166 219.626 240.15 219.626Z" fill="#718EBF"/>
<path d="M289.26 225H295.225V223.984H290.83V223.911L292.953 221.639C294.578 219.899 295.058 219.086 295.058 218.038C295.058 216.58 293.877 215.416 292.215 215.416C290.557 215.416 289.297 216.543 289.297 218.205H290.387C290.387 217.129 291.084 216.413 292.178 216.413C293.203 216.413 293.987 217.041 293.987 218.038C293.987 218.911 293.475 219.557 292.381 220.753L289.26 224.169V225ZM300.215 225.129C302.302 225.129 303.502 223.361 303.502 220.273C303.502 217.207 302.283 215.416 300.215 215.416C298.147 215.416 296.928 217.207 296.928 220.273C296.928 223.361 298.128 225.129 300.215 225.129ZM300.215 224.114C298.839 224.114 298.036 222.733 298.036 220.273C298.036 217.817 298.849 216.413 300.215 216.413C301.582 216.413 302.394 217.817 302.394 220.273C302.394 222.733 301.591 224.114 300.215 224.114ZM308.58 215.545H307.435L305.072 217.115V218.278L307.38 216.746H307.435V225H308.58V215.545ZM314.309 215.416C312.389 215.393 311.151 216.838 311.151 218.574C311.151 220.402 312.499 221.713 314.124 221.713C315.103 221.713 315.934 221.233 316.451 220.457H316.525C316.525 222.784 315.62 224.114 314.161 224.114C313.164 224.114 312.555 223.486 312.352 222.618H311.225C311.447 224.114 312.573 225.129 314.161 225.129C316.285 225.129 317.596 223.246 317.596 219.885C317.596 216.413 315.86 215.435 314.309 215.416ZM314.309 216.432C315.491 216.432 316.359 217.447 316.359 218.555C316.359 219.682 315.436 220.697 314.272 220.697C313.109 220.697 312.259 219.756 312.259 218.574C312.259 217.392 313.146 216.432 314.309 216.432Z" fill="#718EBF"/>
<path d="M362.227 225H368.192V223.984H363.797V223.911L365.92 221.639C367.545 219.899 368.026 219.086 368.026 218.038C368.026 216.58 366.844 215.416 365.182 215.416C363.524 215.416 362.264 216.543 362.264 218.205H363.354C363.354 217.129 364.051 216.413 365.145 216.413C366.17 216.413 366.955 217.041 366.955 218.038C366.955 218.911 366.442 219.557 365.348 220.753L362.227 224.169V225ZM373.182 225.129C375.269 225.129 376.469 223.361 376.469 220.273C376.469 217.207 375.25 215.416 373.182 215.416C371.114 215.416 369.895 217.207 369.895 220.273C369.895 223.361 371.095 225.129 373.182 225.129ZM373.182 224.114C371.806 224.114 371.003 222.733 371.003 220.273C371.003 217.817 371.816 216.413 373.182 216.413C374.549 216.413 375.361 217.817 375.361 220.273C375.361 222.733 374.558 224.114 373.182 224.114ZM378.223 225H384.188V223.984H379.793V223.911L381.917 221.639C383.542 219.899 384.022 219.086 384.022 218.038C384.022 216.58 382.84 215.416 381.178 215.416C379.521 215.416 378.26 216.543 378.26 218.205H379.35C379.35 217.129 380.047 216.413 381.141 216.413C382.166 216.413 382.951 217.041 382.951 218.038C382.951 218.911 382.438 219.557 381.344 220.753L378.223 224.169V225ZM389.178 225.129C391.265 225.129 392.465 223.361 392.465 220.273C392.465 217.207 391.246 215.416 389.178 215.416C387.11 215.416 385.891 217.207 385.891 220.273C385.891 223.361 387.092 225.129 389.178 225.129ZM389.178 224.114C387.803 224.114 386.999 222.733 386.999 220.273C386.999 217.817 387.812 216.413 389.178 216.413C390.545 216.413 391.357 217.817 391.357 220.273C391.357 222.733 390.554 224.114 389.178 224.114Z" fill="#718EBF"/>
<path d="M438.476 225H444.441V223.984H440.046V223.911L442.169 221.639C443.794 219.899 444.275 219.086 444.275 218.038C444.275 216.58 443.093 215.416 441.431 215.416C439.773 215.416 438.513 216.543 438.513 218.205H439.603C439.603 217.129 440.3 216.413 441.394 216.413C442.419 216.413 443.204 217.041 443.204 218.038C443.204 218.911 442.691 219.557 441.597 220.753L438.476 224.169V225ZM449.431 225.129C451.518 225.129 452.718 223.361 452.718 220.273C452.718 217.207 451.499 215.416 449.431 215.416C447.363 215.416 446.144 217.207 446.144 220.273C446.144 223.361 447.345 225.129 449.431 225.129ZM449.431 224.114C448.055 224.114 447.252 222.733 447.252 220.273C447.252 217.817 448.065 216.413 449.431 216.413C450.798 216.413 451.61 217.817 451.61 220.273C451.61 222.733 450.807 224.114 449.431 224.114ZM454.472 225H460.437V223.984H456.042V223.911L458.166 221.639C459.791 219.899 460.271 219.086 460.271 218.038C460.271 216.58 459.089 215.416 457.427 215.416C455.77 215.416 454.509 216.543 454.509 218.205H455.599C455.599 217.129 456.296 216.413 457.39 216.413C458.415 216.413 459.2 217.041 459.2 218.038C459.2 218.911 458.687 219.557 457.593 220.753L454.472 224.169V225ZM465.667 215.545H464.522L462.159 217.115V218.278L464.467 216.746H464.522V225H465.667V215.545Z" fill="#718EBF"/>
<path d="M6.91988 158.182H7.67698V157.152C9.6159 157.018 10.7054 155.874 10.7054 154.433C10.7054 152.661 9.02499 152.088 8.0463 151.83L7.67698 151.728V148.446C8.65567 148.543 9.36661 149.069 9.46817 149.909H10.5761C10.53 148.561 9.34814 147.536 7.67698 147.425V146.364H6.91988V147.439C5.33643 147.601 4.14999 148.607 4.14999 150.057C4.14999 151.331 5.07329 152.088 6.55056 152.513L6.91988 152.619V156.114C5.95042 156.012 5.15638 155.513 5.07329 154.562H3.89147C3.99765 156.017 5.1056 157.032 6.91988 157.152V158.182ZM7.67698 156.114V152.836L7.71391 152.845C8.71107 153.122 9.59743 153.473 9.59743 154.415C9.59743 155.343 8.79417 155.989 7.67698 156.114ZM6.91988 151.525C6.21817 151.326 5.25795 150.939 5.25795 150.001C5.25795 149.203 5.90425 148.593 6.91988 148.46V151.525ZM15.7454 147.545H14.6005L12.2369 149.115V150.278L14.5451 148.746H14.6005V157H15.7454V147.545ZM21.5483 157.129C23.635 157.129 24.8353 155.361 24.8353 152.273C24.8353 149.207 23.6165 147.416 21.5483 147.416C19.4802 147.416 18.2614 149.207 18.2614 152.273C18.2614 155.361 19.4617 157.129 21.5483 157.129ZM21.5483 156.114C20.1726 156.114 19.3694 154.733 19.3694 152.273C19.3694 149.817 20.1819 148.413 21.5483 148.413C22.9148 148.413 23.7273 149.817 23.7273 152.273C23.7273 154.733 22.9241 156.114 21.5483 156.114ZM27.9029 155.707H26.7211L26.6657 156.224C26.5318 157.475 26.2687 158.722 26.1487 159.308H26.9796C27.2012 158.68 27.6721 157.259 27.8291 156.206L27.9029 155.707ZM32.6567 157.129C34.7434 157.129 35.9437 155.361 35.9437 152.273C35.9437 149.207 34.7249 147.416 32.6567 147.416C30.5886 147.416 29.3698 149.207 29.3698 152.273C29.3698 155.361 30.5701 157.129 32.6567 157.129ZM32.6567 156.114C31.281 156.114 30.4778 154.733 30.4778 152.273C30.4778 149.817 31.2903 148.413 32.6567 148.413C34.0232 148.413 34.8357 149.817 34.8357 152.273C34.8357 154.733 34.0324 156.114 32.6567 156.114ZM40.7817 157.129C42.8684 157.129 44.0687 155.361 44.0687 152.273C44.0687 149.207 42.8499 147.416 40.7817 147.416C38.7136 147.416 37.4948 149.207 37.4948 152.273C37.4948 155.361 38.6951 157.129 40.7817 157.129ZM40.7817 156.114C39.406 156.114 38.6028 154.733 38.6028 152.273C38.6028 149.817 39.4153 148.413 40.7817 148.413C42.1482 148.413 42.9607 149.817 42.9607 152.273C42.9607 154.733 42.1574 156.114 40.7817 156.114ZM48.9067 157.129C50.9934 157.129 52.1937 155.361 52.1937 152.273C52.1937 149.207 50.9749 147.416 48.9067 147.416C46.8386 147.416 45.6198 149.207 45.6198 152.273C45.6198 155.361 46.8201 157.129 48.9067 157.129ZM48.9067 156.114C47.531 156.114 46.7278 154.733 46.7278 152.273C46.7278 149.817 47.5403 148.413 48.9067 148.413C50.2732 148.413 51.0857 149.817 51.0857 152.273C51.0857 154.733 50.2824 156.114 48.9067 156.114Z" fill="#718EBF"/>
<path d="M5.11226 110.182H5.86936V109.152C7.80828 109.018 8.89777 107.874 8.89777 106.433C8.89777 104.661 7.21737 104.088 6.23868 103.83L5.86936 103.728V100.446C6.84806 100.543 7.55899 101.069 7.66056 101.909H8.76851C8.72235 100.561 7.54053 99.5362 5.86936 99.4254V98.3636H5.11226V99.4393C3.52881 99.6009 2.34237 100.607 2.34237 102.057C2.34237 103.331 3.26567 104.088 4.74294 104.513L5.11226 104.619V108.114C4.1428 108.012 3.34877 107.513 3.26567 106.562H2.08385C2.19003 108.017 3.29798 109.032 5.11226 109.152V110.182ZM5.86936 108.114V104.836L5.90629 104.845C6.90345 105.122 7.78982 105.473 7.78982 106.415C7.78982 107.343 6.98655 107.989 5.86936 108.114ZM5.11226 103.525C4.41056 103.326 3.45033 102.939 3.45033 102.001C3.45033 101.203 4.09664 100.593 5.11226 100.46V103.525ZM10.6139 109H16.5784V107.984H12.1835V107.911L14.3071 105.639C15.9321 103.899 16.4122 103.086 16.4122 102.038C16.4122 100.58 15.2304 99.4162 13.5685 99.4162C11.9112 99.4162 10.6509 100.543 10.6509 102.205H11.7404C11.7404 101.129 12.4375 100.413 13.5316 100.413C14.5564 100.413 15.3412 101.041 15.3412 102.038C15.3412 102.911 14.8288 103.557 13.7347 104.753L10.6139 108.169V109ZM21.5688 109.129C23.6555 109.129 24.8558 107.361 24.8558 104.273C24.8558 101.207 23.637 99.4162 21.5688 99.4162C19.5007 99.4162 18.2819 101.207 18.2819 104.273C18.2819 107.361 19.4822 109.129 21.5688 109.129ZM21.5688 108.114C20.1931 108.114 19.3899 106.733 19.3899 104.273C19.3899 101.817 20.2024 100.413 21.5688 100.413C22.9353 100.413 23.7478 101.817 23.7478 104.273C23.7478 106.733 22.9446 108.114 21.5688 108.114ZM27.9234 107.707H26.7416L26.6862 108.224C26.5523 109.475 26.2892 110.722 26.1692 111.308H27.0001C27.2217 110.68 27.6926 109.259 27.8496 108.206L27.9234 107.707ZM32.6772 109.129C34.7639 109.129 35.9642 107.361 35.9642 104.273C35.9642 101.207 34.7454 99.4162 32.6772 99.4162C30.6091 99.4162 29.3903 101.207 29.3903 104.273C29.3903 107.361 30.5906 109.129 32.6772 109.129ZM32.6772 108.114C31.3015 108.114 30.4983 106.733 30.4983 104.273C30.4983 101.817 31.3108 100.413 32.6772 100.413C34.0437 100.413 34.8562 101.817 34.8562 104.273C34.8562 106.733 34.053 108.114 32.6772 108.114ZM40.8022 109.129C42.8889 109.129 44.0892 107.361 44.0892 104.273C44.0892 101.207 42.8704 99.4162 40.8022 99.4162C38.7341 99.4162 37.5153 101.207 37.5153 104.273C37.5153 107.361 38.7156 109.129 40.8022 109.129ZM40.8022 108.114C39.4265 108.114 38.6233 106.733 38.6233 104.273C38.6233 101.817 39.4358 100.413 40.8022 100.413C42.1687 100.413 42.9812 101.817 42.9812 104.273C42.9812 106.733 42.178 108.114 40.8022 108.114ZM48.9272 109.129C51.0139 109.129 52.2142 107.361 52.2142 104.273C52.2142 101.207 50.9954 99.4162 48.9272 99.4162C46.8591 99.4162 45.6403 101.207 45.6403 104.273C45.6403 107.361 46.8406 109.129 48.9272 109.129ZM48.9272 108.114C47.5515 108.114 46.7483 106.733 46.7483 104.273C46.7483 101.817 47.5608 100.413 48.9272 100.413C50.2937 100.413 51.1062 101.817 51.1062 104.273C51.1062 106.733 50.303 108.114 48.9272 108.114Z" fill="#718EBF"/>
<path d="M5.171 62.1818H5.9281V61.1523C7.86702 61.0185 8.95651 59.8736 8.95651 58.4332C8.95651 56.6605 7.27611 56.0881 6.29742 55.8295L5.9281 55.728V52.4457C6.90679 52.5426 7.61773 53.0689 7.71929 53.9091H8.82725C8.78108 52.5611 7.59926 51.5362 5.9281 51.4254V50.3636H5.171V51.4393C3.58754 51.6009 2.40111 52.6072 2.40111 54.0568C2.40111 55.331 3.3244 56.0881 4.80168 56.5128L5.171 56.619V60.1136C4.20154 60.0121 3.4075 59.5135 3.3244 58.5625H2.14259C2.24877 60.0167 3.35672 61.0323 5.171 61.1523V62.1818ZM5.9281 60.1136V56.8359L5.96503 56.8452C6.96219 57.1222 7.84855 57.473 7.84855 58.4148C7.84855 59.3427 7.04529 59.989 5.9281 60.1136ZM5.171 55.5249C4.46929 55.3263 3.50906 54.9386 3.50906 54.0014C3.50906 53.2028 4.15537 52.5934 5.171 52.4595V55.5249ZM13.8673 61.1293C15.7 61.1293 17.0619 59.9798 17.0619 58.4332C17.0619 57.233 16.3509 56.3604 15.1599 56.1619V56.0881C16.1155 55.7972 16.711 55.0124 16.711 53.946C16.711 52.6072 15.6539 51.4162 13.9042 51.4162C12.27 51.4162 10.9127 52.4226 10.8573 53.9091H11.9653C12.0068 52.9673 12.9024 52.4134 13.8858 52.4134C14.9291 52.4134 15.6031 53.0458 15.6031 54.0014C15.6031 54.9986 14.8229 55.6449 13.7011 55.6449H12.944V56.6605H13.7011C15.1368 56.6605 15.9355 57.3899 15.9355 58.4332C15.9355 59.435 15.063 60.1136 13.8488 60.1136C12.7547 60.1136 11.8868 59.5504 11.8176 58.6364H10.6542C10.7235 60.1229 12.0345 61.1293 13.8673 61.1293ZM22.0338 61.1293C24.1205 61.1293 25.3208 59.3612 25.3208 56.2727C25.3208 53.2074 24.102 51.4162 22.0338 51.4162C19.9657 51.4162 18.7469 53.2074 18.7469 56.2727C18.7469 59.3612 19.9472 61.1293 22.0338 61.1293ZM22.0338 60.1136C20.6581 60.1136 19.8549 58.7333 19.8549 56.2727C19.8549 53.8168 20.6674 52.4134 22.0338 52.4134C23.4003 52.4134 24.2128 53.8168 24.2128 56.2727C24.2128 58.7333 23.4095 60.1136 22.0338 60.1136ZM28.3884 59.7074H27.2066L27.1512 60.2244C27.0173 61.4755 26.7542 62.7219 26.6342 63.3082H27.4651C27.6867 62.6804 28.1576 61.2585 28.3145 60.206L28.3884 59.7074ZM33.1422 61.1293C35.2289 61.1293 36.4292 59.3612 36.4292 56.2727C36.4292 53.2074 35.2104 51.4162 33.1422 51.4162C31.074 51.4162 29.8553 53.2074 29.8553 56.2727C29.8553 59.3612 31.0556 61.1293 33.1422 61.1293ZM33.1422 60.1136C31.7665 60.1136 30.9633 58.7333 30.9633 56.2727C30.9633 53.8168 31.7758 52.4134 33.1422 52.4134C34.5087 52.4134 35.3212 53.8168 35.3212 56.2727C35.3212 58.7333 34.5179 60.1136 33.1422 60.1136ZM41.2672 61.1293C43.3539 61.1293 44.5542 59.3612 44.5542 56.2727C44.5542 53.2074 43.3354 51.4162 41.2672 51.4162C39.199 51.4162 37.9803 53.2074 37.9803 56.2727C37.9803 59.3612 39.1806 61.1293 41.2672 61.1293ZM41.2672 60.1136C39.8915 60.1136 39.0883 58.7333 39.0883 56.2727C39.0883 53.8168 39.9008 52.4134 41.2672 52.4134C42.6337 52.4134 43.4462 53.8168 43.4462 56.2727C43.4462 58.7333 42.6429 60.1136 41.2672 60.1136ZM49.3922 61.1293C51.4789 61.1293 52.6792 59.3612 52.6792 56.2727C52.6792 53.2074 51.4604 51.4162 49.3922 51.4162C47.324 51.4162 46.1053 53.2074 46.1053 56.2727C46.1053 59.3612 47.3056 61.1293 49.3922 61.1293ZM49.3922 60.1136C48.0165 60.1136 47.2133 58.7333 47.2133 56.2727C47.2133 53.8168 48.0258 52.4134 49.3922 52.4134C50.7587 52.4134 51.5712 53.8168 51.5712 56.2727C51.5712 58.7333 50.7679 60.1136 49.3922 60.1136Z" fill="#718EBF"/>
<path d="M5.10752 14.1818H5.86462V13.1523C7.80354 13.0185 8.89303 11.8736 8.89303 10.4332C8.89303 8.66051 7.21263 8.08807 6.23394 7.82955L5.86462 7.72798V4.44567C6.84331 4.54261 7.55425 5.06889 7.65581 5.90909H8.76377C8.7176 4.56108 7.53579 3.53622 5.86462 3.42543V2.36364H5.10752V3.43928C3.52407 3.60085 2.33763 4.60724 2.33763 6.05682C2.33763 7.33097 3.26093 8.08807 4.7382 8.51278L5.10752 8.61896V12.1136C4.13806 12.0121 3.34402 11.5135 3.26093 10.5625H2.07911C2.18529 12.0167 3.29324 13.0323 5.10752 13.1523V14.1818ZM5.86462 12.1136V8.83594L5.90155 8.84517C6.89871 9.12216 7.78508 9.47301 7.78508 10.4148C7.78508 11.3427 6.98181 11.989 5.86462 12.1136ZM5.10752 7.52486C4.40581 7.32635 3.44559 6.93857 3.44559 6.00142C3.44559 5.20277 4.09189 4.59339 5.10752 4.45952V7.52486ZM10.3876 11.0611H14.8379V13H15.9274V11.0611H17.22V10.0455H15.9274V3.54545H14.5424L10.3876 10.1193V11.0611ZM14.8379 10.0455H11.6248V9.97159L14.764 5.00426H14.8379V10.0455ZM22.0338 13.1293C24.1205 13.1293 25.3208 11.3612 25.3208 8.27273C25.3208 5.20739 24.102 3.41619 22.0338 3.41619C19.9657 3.41619 18.7469 5.20739 18.7469 8.27273C18.7469 11.3612 19.9472 13.1293 22.0338 13.1293ZM22.0338 12.1136C20.6581 12.1136 19.8549 10.7333 19.8549 8.27273C19.8549 5.81676 20.6674 4.41335 22.0338 4.41335C23.4003 4.41335 24.2128 5.81676 24.2128 8.27273C24.2128 10.7333 23.4095 12.1136 22.0338 12.1136ZM28.3884 11.7074H27.2066L27.1512 12.2244C27.0173 13.4755 26.7542 14.7219 26.6342 15.3082H27.4651C27.6867 14.6804 28.1576 13.2585 28.3145 12.206L28.3884 11.7074ZM33.1422 13.1293C35.2289 13.1293 36.4292 11.3612 36.4292 8.27273C36.4292 5.20739 35.2104 3.41619 33.1422 3.41619C31.074 3.41619 29.8553 5.20739 29.8553 8.27273C29.8553 11.3612 31.0556 13.1293 33.1422 13.1293ZM33.1422 12.1136C31.7665 12.1136 30.9633 10.7333 30.9633 8.27273C30.9633 5.81676 31.7758 4.41335 33.1422 4.41335C34.5087 4.41335 35.3212 5.81676 35.3212 8.27273C35.3212 10.7333 34.5179 12.1136 33.1422 12.1136ZM41.2672 13.1293C43.3539 13.1293 44.5542 11.3612 44.5542 8.27273C44.5542 5.20739 43.3354 3.41619 41.2672 3.41619C39.199 3.41619 37.9803 5.20739 37.9803 8.27273C37.9803 11.3612 39.1806 13.1293 41.2672 13.1293ZM41.2672 12.1136C39.8915 12.1136 39.0883 10.7333 39.0883 8.27273C39.0883 5.81676 39.9008 4.41335 41.2672 4.41335C42.6337 4.41335 43.4462 5.81676 43.4462 8.27273C43.4462 10.7333 42.6429 12.1136 41.2672 12.1136ZM49.3922 13.1293C51.4789 13.1293 52.6792 11.3612 52.6792 8.27273C52.6792 5.20739 51.4604 3.41619 49.3922 3.41619C47.324 3.41619 46.1053 5.20739 46.1053 8.27273C46.1053 11.3612 47.3056 13.1293 49.3922 13.1293ZM49.3922 12.1136C48.0165 12.1136 47.2133 10.7333 47.2133 8.27273C47.2133 5.81676 48.0258 4.41335 49.3922 4.41335C50.7587 4.41335 51.5712 5.81676 51.5712 8.27273C51.5712 10.7333 50.7679 12.1136 49.3922 12.1136Z" fill="#718EBF"/>
<path d="M40.807 206.182H41.5641V205.152C43.503 205.018 44.5925 203.874 44.5925 202.433C44.5925 200.661 42.9121 200.088 41.9334 199.83L41.5641 199.728V196.446C42.5428 196.543 43.2537 197.069 43.3553 197.909H44.4632C44.4171 196.561 43.2353 195.536 41.5641 195.425V194.364H40.807V195.439C39.2235 195.601 38.0371 196.607 38.0371 198.057C38.0371 199.331 38.9604 200.088 40.4377 200.513L40.807 200.619V204.114C39.8375 204.012 39.0435 203.513 38.9604 202.562H37.7786C37.8848 204.017 38.9927 205.032 40.807 205.152V206.182ZM41.5641 204.114V200.836L41.601 200.845C42.5982 201.122 43.4846 201.473 43.4846 202.415C43.4846 203.343 42.6813 203.989 41.5641 204.114ZM40.807 199.525C40.1053 199.326 39.1451 198.939 39.1451 198.001C39.1451 197.203 39.7914 196.593 40.807 196.46V199.525ZM49.3925 205.129C51.4791 205.129 52.6794 203.361 52.6794 200.273C52.6794 197.207 51.4607 195.416 49.3925 195.416C47.3243 195.416 46.1056 197.207 46.1056 200.273C46.1056 203.361 47.3058 205.129 49.3925 205.129ZM49.3925 204.114C48.0168 204.114 47.2135 202.733 47.2135 200.273C47.2135 197.817 48.026 196.413 49.3925 196.413C50.759 196.413 51.5715 197.817 51.5715 200.273C51.5715 202.733 50.7682 204.114 49.3925 204.114Z" fill="#718EBF"/>
<rect x="62.6123" y="204.25" width="419.138" height="0.5" stroke="#DFE5EE" stroke-width="0.5" stroke-dasharray="4 4"/>
<rect x="62.6123" y="158.25" width="419.138" height="0.5" stroke="#DFE5EE" stroke-width="0.5" stroke-dasharray="4 4"/>
<rect x="62.6123" y="110.25" width="419.138" height="0.5" stroke="#DFE5EE" stroke-width="0.5" stroke-dasharray="4 4"/>
<rect x="62.6123" y="62.25" width="419.138" height="0.5" stroke="#DFE5EE" stroke-width="0.5" stroke-dasharray="4 4"/>
<rect x="62.6123" y="14.25" width="419.138" height="0.5" stroke="#DFE5EE" stroke-width="0.5" stroke-dasharray="4 4"/>
<path d="M81.6616 175L156.88 90L229.129 128L303.852 27L378.08 104L454.783 65" stroke="#FCAA0B" stroke-width="3" stroke-linecap="round" stroke-linejoin="round"/>
<path d="M85.6051 176C85.6051 178.5 83.6034 180.5 81.1668 180.5C78.7302 180.5 76.7285 178.5 76.7285 176C76.7285 173.5 78.7302 171.5 81.1668 171.5C83.6034 171.5 85.6051 173.5 85.6051 176Z" fill="white" stroke="#EDA10D" stroke-width="3"/>
<path d="M161.813 91C161.813 93.4999 159.811 95.5 157.374 95.5C154.938 95.5 152.936 93.4999 152.936 91C152.936 88.5001 154.938 86.5 157.374 86.5C159.811 86.5 161.813 88.5001 161.813 91Z" fill="white" stroke="#EDA10D" stroke-width="3"/>
<path d="M233.072 127C233.072 129.5 231.07 131.5 228.634 131.5C226.197 131.5 224.195 129.5 224.195 127C224.195 124.5 226.197 122.5 228.634 122.5C231.07 122.5 233.072 124.5 233.072 127Z" fill="white" stroke="#EDA10D" stroke-width="3"/>
<path d="M309.28 27C309.28 29.4999 307.278 31.5 304.842 31.5C302.405 31.5 300.403 29.4999 300.403 27C300.403 24.5001 302.405 22.5 304.842 22.5C307.278 22.5 309.28 24.5001 309.28 27Z" fill="white" stroke="#EDA10D" stroke-width="3"/>
<path d="M383.508 103C383.508 105.5 381.507 107.5 379.07 107.5C376.634 107.5 374.632 105.5 374.632 103C374.632 100.5 376.634 98.5 379.07 98.5C381.507 98.5 383.508 100.5 383.508 103Z" fill="white" stroke="#EDA10D" stroke-width="3"/>
<path d="M459.716 64C459.716 66.4999 457.714 68.5 455.278 68.5C452.841 68.5 450.839 66.4999 450.839 64C450.839 61.5001 452.841 59.5 455.278 59.5C457.714 59.5 459.716 61.5001 459.716 64Z" fill="white" stroke="#EDA10D" stroke-width="3"/>
</svg>
