<svg width="142" height="140" viewBox="0 0 142 140" fill="none" xmlns="http://www.w3.org/2000/svg">
<g id="Group 346">
<path id="Vector" opacity="0.83" d="M110.662 42.5683C100.401 32.1089 86.1531 25.5727 70.3488 25.4219C54.5446 25.271 40.1699 31.545 29.7184 41.7979C19.267 52.0508 12.7229 66.3064 12.572 82.1107C12.4211 97.9149 18.6952 112.29 28.9481 122.741C39.201 133.193 53.4566 139.737 69.2608 139.888C85.0651 140.038 99.4398 133.764 109.891 123.511C120.351 113.251 126.887 99.003 127.038 83.1987C127.189 67.3945 120.915 53.0277 110.662 42.5683Z" fill="url(#paint0_radial_158_474)" fill-opacity="0.5"/>
<path id="Vector_2" d="M5.94862 74.9231C5.78978 91.458 12.3497 106.5 23.0871 117.444C33.8245 128.388 48.7313 135.233 65.2662 135.392L65.838 75.5029L5.94862 74.9231Z" fill="#FFBB38"/>
<path id="Vector_3" d="M29.5041 75.1455C29.4088 85.184 33.3877 94.3091 39.9079 100.949C46.4202 107.588 55.466 111.741 65.5045 111.837L65.8539 75.4949L29.5041 75.1455Z" fill="#FFB11F"/>
<path id="Vector_4" d="M19.7275 28.4953C7.69564 40.2969 0.17472 56.6888 0 74.8677L65.8458 75.4951L66.4732 9.64934C48.2864 9.47462 31.7594 16.6938 19.7275 28.4953Z" fill="#4C78FF"/>
<path id="Vector_5" d="M40.3926 49.5489C33.7533 56.0612 29.5997 65.107 29.5044 75.1454L65.8462 75.4949L66.1957 39.153C56.1572 39.0577 47.032 43.0366 40.3926 49.5489Z" fill="#3464F3"/>
<path id="Vector_6" d="M119.74 22.6183C106.207 8.82338 87.4163 0.198546 66.5611 0L65.8384 75.4951L141.333 76.2178C141.54 55.3625 133.272 36.4054 119.74 22.6183Z" fill="#16DBCC"/>
<path id="Vector_7" d="M91.7844 50.0413C85.272 43.402 76.2263 39.2484 66.1878 39.1531L65.8384 75.4949L102.18 75.8443C102.283 65.8059 98.3046 56.6807 91.7844 50.0413Z" fill="#1EC6B8"/>
<path id="Vector_8" d="M65.8458 75.4949L65.3296 129.341C80.1967 129.483 93.7137 123.583 103.554 113.933C113.394 104.284 119.549 90.8782 119.684 76.0111L65.8458 75.4949Z" fill="#FF82AC"/>
<path id="Vector_9" opacity="0.08" d="M65.7904 81.348L65.8459 75.4949L5.95658 74.9231C5.9407 76.9006 6.02012 78.8543 6.18689 80.7762L65.7904 81.348Z" fill="url(#paint1_linear_158_474)"/>
<path id="Vector_10" d="M65.846 75.4949L65.4966 111.837C75.5351 111.932 84.6602 107.953 91.2996 101.441C97.939 94.9286 102.093 85.8828 102.188 75.8443L65.846 75.4949Z" fill="#FF6195"/>
<path id="Vector_11" opacity="0.83" d="M89.9417 62.8677C85.2719 58.1105 78.7913 55.1324 71.596 55.0609C64.4007 54.9894 57.8646 57.8485 53.1074 62.5103C48.3503 67.1801 45.3721 73.6607 45.3006 80.856C45.2291 88.0513 48.0882 94.5874 52.7501 99.3445C57.4199 104.102 63.9004 107.08 71.0957 107.151C78.291 107.223 84.8271 104.364 89.5843 99.7019C94.3414 95.0321 97.3196 88.5516 97.3911 81.3563C97.4626 74.161 94.6115 67.6249 89.9417 62.8677Z" fill="url(#paint2_radial_158_474)" fill-opacity="0.5"/>
<path id="Vector_12" d="M84.4378 57.2527C79.768 52.4955 73.2874 49.5174 66.0921 49.4459C58.8968 49.3744 52.3607 52.2335 47.6035 56.8953C42.8464 61.5651 39.8682 68.0457 39.7967 75.241C39.7252 82.4363 42.5843 88.9724 47.2462 93.7296C51.916 98.4867 58.3965 101.465 65.5918 101.536C72.7871 101.608 79.3232 98.7488 84.0804 94.0869C88.8375 89.4171 91.8157 82.9366 91.8872 75.7413C91.9587 68.546 89.1076 62.0099 84.4378 57.2527Z" fill="white"/>
</g>
<defs>
<radialGradient id="paint0_radial_158_474" cx="0" cy="0" r="1" gradientUnits="userSpaceOnUse" gradientTransform="translate(69.8018 82.6551) rotate(0.544294) scale(57.2389)">
<stop/>
<stop offset="1" stop-opacity="0"/>
</radialGradient>
<linearGradient id="paint1_linear_158_474" x1="35.8317" y1="82.2313" x2="35.8972" y2="75.3443" gradientUnits="userSpaceOnUse">
<stop stop-color="white"/>
<stop offset="1"/>
</linearGradient>
<radialGradient id="paint2_radial_158_474" cx="0" cy="0" r="1" gradientUnits="userSpaceOnUse" gradientTransform="translate(71.3516 81.1057) rotate(0.544293) scale(26.0454 26.0454)">
<stop/>
<stop offset="1" stop-opacity="0"/>
</radialGradient>
</defs>
</svg>
