<svg width="25" height="25" viewBox="0 0 25 25" fill="none" xmlns="http://www.w3.org/2000/svg">
<circle cx="12.5" cy="12.5" r="12.5" fill="#1814F3"/>
<g clip-path="url(#clip0_163_1057)">
<path d="M18.67 10.3309L17.5895 11.4114C17.4793 11.5215 17.3012 11.5215 17.191 11.4114L14.5895 8.80981C14.4793 8.69966 14.4793 8.52153 14.5895 8.41138L15.67 7.33091C16.1082 6.89263 16.8207 6.89263 17.2614 7.33091L18.67 8.7395C19.1106 9.17778 19.1106 9.89028 18.67 10.3309ZM13.6614 9.3395L7.50667 15.4942L7.0098 18.3418C6.94183 18.7262 7.27698 19.059 7.66136 18.9934L10.509 18.4942L16.6637 12.3395C16.7739 12.2293 16.7739 12.0512 16.6637 11.9411L14.0621 9.3395C13.9496 9.22935 13.7715 9.22935 13.6614 9.3395ZM9.90901 14.9668C9.78011 14.8379 9.78011 14.6317 9.90901 14.5028L13.5184 10.8934C13.6473 10.7645 13.8535 10.7645 13.9825 10.8934C14.1114 11.0223 14.1114 11.2286 13.9825 11.3575L10.3731 14.9668C10.2442 15.0958 10.0379 15.0958 9.90901 14.9668ZM9.06292 16.9379H10.1879V17.7887L8.6762 18.0536L7.9473 17.3247L8.21214 15.8129H9.06292V16.9379Z" fill="white"/>
</g>
<defs>
<clipPath id="clip0_163_1057">
<rect width="12" height="12" fill="white" transform="translate(7 7)"/>
</clipPath>
</defs>
</svg>
